<svg width="791" height="424" viewBox="0 0 791 424" fill="none" xmlns="http://www.w3.org/2000/svg">
<path d="M705.578 144.694C674.472 118.161 636.974 -41.851 508.515 41.488C442.146 84.545 330.234 4.52299 237.603 32.163C152.533 57.547 144.333 141.178 152.564 168.43C169.19 223.476 117.448 231.668 69.449 255.32C-5.84301 292.419 49.523 422.799 120.652 423.423C191.781 424.047 622.693 422.182 622.693 422.182C622.693 422.182 726.023 422.444 768.993 365.413C815.231 304.043 785.921 213.227 705.578 144.694Z" fill="white"/>
<path d="M751.587 46.247H574.501V343.779H751.587V46.247Z" fill="#AED3FF"/>
<path d="M746.037 46.247H568.95V343.779H746.037V46.247Z" fill="#739AF0"/>
<path d="M734.397 62.868H581.01V166.504H734.397V62.868Z" fill="#F3F9FF"/>
<path d="M731.752 263.756H649.429V319.088H731.752V263.756Z" fill="#F3F9FF"/>
<path d="M587.334 115.763C587.334 115.763 613.524 112.5 629.527 127.243C645.531 141.985 675.343 128.549 687.346 127.243C708.217 124.971 724.578 131.799 729.431 139.305V161.822H587.334V115.763Z" fill="#FB7369"/>
<path d="M608.732 79.526H607.635V114.687H608.732V79.526Z" fill="#A6C7F9"/>
<path d="M651.8 94.614H650.703V129.774H651.8V94.614Z" fill="#A6C7F9"/>
<path d="M696.239 86.659H695.141V121.819H696.239V86.659Z" fill="#A6C7F9"/>
<path d="M620.985 84.921H612.572C612.069 84.921 611.657 84.509 611.657 84.006C611.657 83.504 612.069 83.092 612.572 83.092H620.985C621.487 83.092 621.898 83.504 621.898 84.006C621.898 84.51 621.487 84.921 620.985 84.921Z" fill="#A6C7F9"/>
<path d="M620.985 88.213H612.572C612.069 88.213 611.657 87.801 611.657 87.298C611.657 86.796 612.069 86.384 612.572 86.384H620.985C621.487 86.384 621.898 86.796 621.898 87.298C621.898 87.801 621.487 88.213 620.985 88.213Z" fill="#A6C7F9"/>
<path d="M663.412 102.843H654.999C654.497 102.843 654.085 102.432 654.085 101.929C654.085 101.426 654.497 101.015 654.999 101.015H663.412C663.915 101.015 664.327 101.426 664.327 101.929C664.327 102.432 663.915 102.843 663.412 102.843Z" fill="#A6C7F9"/>
<path d="M663.412 106.067H654.999C654.497 106.067 654.085 105.655 654.085 105.152C654.085 104.649 654.497 104.238 654.999 104.238H663.412C663.915 104.238 664.327 104.649 664.327 105.152C664.327 105.656 663.915 106.067 663.412 106.067Z" fill="#A6C7F9"/>
<path d="M708.583 89.585H700.17C699.667 89.585 699.257 89.173 699.257 88.67C699.257 88.167 699.667 87.756 700.17 87.756H708.583C709.086 87.756 709.498 88.167 709.498 88.67C709.498 89.173 709.086 89.585 708.583 89.585Z" fill="#A6C7F9"/>
<path d="M708.583 92.809H700.17C699.667 92.809 699.257 92.397 699.257 91.894C699.257 91.391 699.667 90.979 700.17 90.979H708.583C709.086 90.979 709.498 91.391 709.498 91.894C709.498 92.397 709.086 92.809 708.583 92.809Z" fill="#A6C7F9"/>
<path d="M719.251 208.158C727.615 208.158 734.396 201.377 734.396 193.013C734.396 184.649 727.615 177.868 719.251 177.868C710.887 177.868 704.106 184.649 704.106 193.013C704.106 201.377 710.887 208.158 719.251 208.158Z" fill="#F3F9FF"/>
<path d="M733.112 193.012C733.112 200.667 726.907 206.874 719.252 206.874C715.638 206.874 712.347 205.492 709.882 203.227L719.252 193.012V179.151C726.907 179.151 733.112 185.358 733.112 193.012Z" fill="#FB7369"/>
<path d="M713.972 190.571H708.994C708.765 190.571 708.577 190.383 708.577 190.154C708.577 189.925 708.765 189.737 708.994 189.737H713.972C714.201 189.737 714.389 189.925 714.389 190.154C714.389 190.383 714.202 190.571 713.972 190.571Z" fill="#A6C7F9"/>
<path d="M681.65 208.158C690.014 208.158 696.795 201.377 696.795 193.013C696.795 184.649 690.014 177.868 681.65 177.868C673.286 177.868 666.505 184.649 666.505 193.013C666.505 201.377 673.286 208.158 681.65 208.158Z" fill="#F3F9FF"/>
<path d="M681.65 193.012L690.167 203.949C687.817 205.782 684.862 206.874 681.65 206.874C673.993 206.874 667.787 200.667 667.787 193.012C667.787 185.357 673.993 179.151 681.65 179.151C688.879 179.151 694.813 184.684 695.454 191.746L681.65 193.012Z" fill="#E57970"/>
<path d="M692.323 196.44H688.859C688.63 196.44 688.442 196.252 688.442 196.023C688.442 195.794 688.63 195.606 688.859 195.606H692.323C692.553 195.606 692.74 195.794 692.74 196.023C692.74 196.253 692.553 196.44 692.323 196.44Z" fill="#A6C7F9"/>
<path d="M719.251 249.871C727.615 249.871 734.396 243.09 734.396 234.726C734.396 226.362 727.615 219.581 719.251 219.581C710.887 219.581 704.106 226.362 704.106 234.726C704.106 243.09 710.887 249.871 719.251 249.871Z" fill="#F3F9FF"/>
<path d="M733.112 234.726C733.112 242.38 726.907 248.586 719.252 248.586C715.638 248.586 712.347 247.205 709.882 244.94L719.252 234.725V220.865C726.907 220.865 733.112 227.071 733.112 234.726Z" fill="#FB7369"/>
<path d="M713.972 232.285H708.994C708.765 232.285 708.577 232.097 708.577 231.867C708.577 231.638 708.765 231.45 708.994 231.45H713.972C714.201 231.45 714.389 231.638 714.389 231.867C714.389 232.096 714.202 232.285 713.972 232.285Z" fill="#A6C7F9"/>
<path d="M681.65 249.871C690.014 249.871 696.795 243.09 696.795 234.726C696.795 226.362 690.014 219.581 681.65 219.581C673.286 219.581 666.505 226.362 666.505 234.726C666.505 243.09 673.286 249.871 681.65 249.871Z" fill="#F3F9FF"/>
<path d="M695.454 233.46C694.813 226.398 688.879 220.865 681.65 220.865C673.993 220.865 667.787 227.071 667.787 234.726C667.787 242.38 673.993 248.586 681.65 248.586C684.862 248.586 687.817 247.496 690.167 245.662L681.65 234.725L695.454 233.46Z" fill="#FB7369"/>
<path d="M692.323 238.153H688.859C688.63 238.153 688.442 237.965 688.442 237.736C688.442 237.507 688.63 237.32 688.859 237.32H692.323C692.553 237.32 692.74 237.508 692.74 237.736C692.74 237.965 692.553 238.153 692.323 238.153Z" fill="#A6C7F9"/>
<path d="M728.204 315.222H652.641V270.576H653.582V314.283H728.204V315.222Z" fill="#A6C7F9"/>
<path d="M676.262 299.077C667.012 291.714 657.176 299.077 657.176 299.077V311.665H726.327V279.126C707.534 279.601 685.512 306.44 676.262 299.077Z" fill="#A6C7F9"/>
<path d="M657.968 273.98H690.192C690.627 273.98 690.983 273.624 690.983 273.187C690.983 272.752 690.627 272.397 690.192 272.397H657.968C657.532 272.397 657.177 272.752 657.177 273.187C657.177 273.624 657.532 273.98 657.968 273.98Z" fill="#A6C7F9"/>
<path d="M657.968 277.848H690.192C690.627 277.848 690.983 277.493 690.983 277.056C690.983 276.621 690.627 276.265 690.192 276.265H657.968C657.532 276.265 657.177 276.621 657.177 277.056C657.177 277.493 657.532 277.848 657.968 277.848Z" fill="#A6C7F9"/>
<path d="M657.824 281.501H679.159C679.516 281.501 679.807 281.21 679.807 280.854V280.566C679.807 280.21 679.516 279.919 679.159 279.919H657.824C657.468 279.919 657.177 280.21 657.177 280.566V280.854C657.177 281.21 657.468 281.501 657.824 281.501Z" fill="#A6C7F9"/>
<path d="M539.649 0H297.352V365.413H539.649V0Z" fill="#739AF0"/>
<path d="M515.843 20.439H320.763V237.878H515.843V20.439Z" fill="#F3F9FF"/>
<path d="M359.993 342.431C379.369 342.431 395.077 326.723 395.077 307.347C395.077 287.971 379.369 272.263 359.993 272.263C340.617 272.263 324.909 287.971 324.909 307.347C324.909 326.723 340.617 342.431 359.993 342.431Z" fill="#F3F9FF"/>
<path d="M389.649 307.347C389.649 290.97 376.373 277.691 359.995 277.691C343.613 277.691 330.337 290.97 330.337 307.347C330.337 323.726 343.613 337.004 359.995 337.004C366.761 337.004 372.995 334.741 377.981 330.928L359.995 307.347L387.707 317.924C388.961 314.64 389.649 311.075 389.649 307.347Z" fill="#FB7369"/>
<path d="M479.53 342.431C498.906 342.431 514.614 326.723 514.614 307.347C514.614 287.971 498.906 272.263 479.53 272.263C460.154 272.263 444.446 287.971 444.446 307.347C444.446 326.723 460.154 342.431 479.53 342.431Z" fill="#F3F9FF"/>
<path d="M479.53 277.691C463.148 277.691 449.872 290.97 449.872 307.347C449.872 315.454 453.121 322.797 458.393 328.151L479.53 307.347L507.243 317.924C508.496 314.64 509.184 311.074 509.184 307.347C509.184 290.97 495.909 277.691 479.53 277.691Z" fill="#FB7369"/>
<path d="M475.195 292.292H462.572C462.076 292.292 461.67 292.698 461.67 293.194C461.67 293.69 462.076 294.095 462.572 294.095H475.195C475.691 294.095 476.097 293.69 476.097 293.194C476.097 292.698 475.691 292.292 475.195 292.292Z" fill="#A6C7F9"/>
<path d="M475.195 295.148H462.572C462.076 295.148 461.67 295.553 461.67 296.049C461.67 296.545 462.076 296.95 462.572 296.95H475.195C475.691 296.95 476.097 296.545 476.097 296.049C476.097 295.553 475.691 295.148 475.195 295.148Z" fill="#A6C7F9"/>
<path d="M467.785 298.004H462.572C462.076 298.004 461.67 298.409 461.67 298.905C461.67 299.4 462.076 299.807 462.572 299.807H467.785C468.28 299.807 468.687 299.4 468.687 298.905C468.687 298.409 468.28 298.004 467.785 298.004Z" fill="#A6C7F9"/>
<path d="M355.417 292.292H342.793C342.297 292.292 341.892 292.698 341.892 293.194C341.892 293.69 342.297 294.095 342.793 294.095H355.417C355.914 294.095 356.319 293.69 356.319 293.194C356.319 292.698 355.913 292.292 355.417 292.292Z" fill="#A6C7F9"/>
<path d="M355.417 295.148H342.793C342.297 295.148 341.892 295.553 341.892 296.049C341.892 296.545 342.297 296.95 342.793 296.95H355.417C355.914 296.95 356.319 296.545 356.319 296.049C356.319 295.553 355.913 295.148 355.417 295.148Z" fill="#A6C7F9"/>
<path d="M348.006 298.004H342.793C342.297 298.004 341.892 298.409 341.892 298.905C341.892 299.4 342.297 299.807 342.793 299.807H348.006C348.502 299.807 348.908 299.4 348.908 298.905C348.908 298.409 348.502 298.004 348.006 298.004Z" fill="#A6C7F9"/>
<path d="M358.719 98.148H338.134V226.383H358.719V98.148Z" fill="#A6C7F9"/>
<path d="M392.444 62.403H371.859V226.382H392.444V62.403Z" fill="#A6C7F9"/>
<path d="M429.243 129.159H408.658V226.383H429.243V129.159Z" fill="#A6C7F9"/>
<path d="M465.051 84.296H444.466V226.383H465.051V84.296Z" fill="#A6C7F9"/>
<path d="M501.046 148.188H480.46V226.383H501.046V148.188Z" fill="#A6C7F9"/>
<path d="M464.074 65.81H446.64C445.649 65.81 444.837 66.622 444.837 67.614C444.837 68.606 445.649 69.417 446.64 69.417H464.074C465.065 69.417 465.879 68.606 465.879 67.614C465.879 66.621 465.065 65.81 464.074 65.81Z" fill="#A6C7F9"/>
<path d="M450.611 72.373H446.64C445.649 72.373 444.837 73.184 444.837 74.176C444.837 75.168 445.649 75.979 446.64 75.979H450.611C451.604 75.979 452.415 75.167 452.415 74.176C452.415 73.184 451.604 72.373 450.611 72.373Z" fill="#A6C7F9"/>
<path d="M392.237 37.881H374.804C373.812 37.881 373 38.693 373 39.684C373 40.676 373.812 41.488 374.804 41.488H392.237C393.229 41.488 394.041 40.676 394.041 39.684C394.041 38.693 393.229 37.881 392.237 37.881Z" fill="#A6C7F9"/>
<path d="M378.774 44.444H374.804C373.812 44.444 373 45.256 373 46.247C373 47.239 373.812 48.051 374.804 48.051H378.774C379.766 48.051 380.578 47.239 380.578 46.247C380.578 45.255 379.766 44.444 378.774 44.444Z" fill="#A6C7F9"/>
<path d="M427.667 110.019H410.233C409.242 110.019 408.43 110.83 408.43 111.822C408.43 112.814 409.242 113.626 410.233 113.626H427.667C428.659 113.626 429.471 112.814 429.471 111.822C429.47 110.83 428.659 110.019 427.667 110.019Z" fill="#A6C7F9"/>
<path d="M414.204 116.582H410.233C409.242 116.582 408.43 117.394 408.43 118.386C408.43 119.378 409.242 120.189 410.233 120.189H414.204C415.196 120.189 416.008 119.378 416.008 118.386C416.008 117.394 415.196 116.582 414.204 116.582Z" fill="#A6C7F9"/>
<path d="M499.469 129.159H482.034C481.044 129.159 480.231 129.971 480.231 130.963C480.231 131.955 481.044 132.766 482.034 132.766H499.469C500.46 132.766 501.272 131.954 501.272 130.963C501.272 129.97 500.461 129.159 499.469 129.159Z" fill="#A6C7F9"/>
<path d="M486.006 135.721H482.035C481.045 135.721 480.232 136.533 480.232 137.525C480.232 138.517 481.045 139.328 482.035 139.328H486.006C486.998 139.328 487.81 138.517 487.81 137.525C487.809 136.533 486.998 135.721 486.006 135.721Z" fill="#A6C7F9"/>
<path d="M264.654 138.512H87.569V238.206H264.654V138.512Z" fill="#AED3FF"/>
<path d="M270.412 138.512H93.326V238.206H270.412V138.512Z" fill="#739AF0"/>
<path d="M141.758 218.126C159.442 218.126 173.777 203.791 173.777 186.107C173.777 168.423 159.442 154.088 141.758 154.088C124.074 154.088 109.739 168.423 109.739 186.107C109.739 203.791 124.074 218.126 141.758 218.126Z" fill="#F3F9FF"/>
<path d="M250.506 168.22H197.463C195.541 168.22 193.968 169.793 193.968 171.715C193.968 173.637 195.541 175.21 197.463 175.21H250.506C252.428 175.21 254.001 173.638 254.001 171.715C254.001 169.793 252.428 168.22 250.506 168.22Z" fill="#F3F9FF"/>
<path d="M250.506 182.612H197.463C195.541 182.612 193.968 184.185 193.968 186.107C193.968 188.029 195.541 189.602 197.463 189.602H250.506C252.428 189.602 254.001 188.029 254.001 186.107C254.001 184.185 252.428 182.612 250.506 182.612Z" fill="#F3F9FF"/>
<path d="M250.506 197.003H197.463C195.541 197.003 193.968 198.576 193.968 200.499C193.968 202.421 195.541 203.994 197.463 203.994H250.506C252.428 203.994 254.001 202.421 254.001 200.499C254.001 198.576 252.428 197.003 250.506 197.003Z" fill="#F3F9FF"/>
<path d="M112.443 185.642H141.759V156.325C125.569 156.325 112.443 169.452 112.443 185.642Z" fill="#3A4ACE"/>
<path d="M171.074 186.585H141.759H141.758H112.443C112.443 202.775 125.568 215.901 141.758 215.901C157.949 215.901 171.074 202.775 171.074 186.585Z" fill="#3A4ACE"/>
<path d="M136.695 170.569H120.784C119.879 170.569 119.138 171.31 119.138 172.215C119.138 173.12 119.878 173.861 120.784 173.861H136.695C137.6 173.861 138.341 173.12 138.341 172.215C138.341 171.31 137.6 170.569 136.695 170.569Z" fill="#6D89D0"/>
<path d="M124.408 176.559H120.784C119.879 176.559 119.138 177.3 119.138 178.205C119.138 179.11 119.878 179.851 120.784 179.851H124.408C125.313 179.851 126.054 179.11 126.054 178.205C126.054 177.3 125.313 176.559 124.408 176.559Z" fill="#6D89D0"/>
<path d="M160.316 193.752H144.405C143.5 193.752 142.759 194.493 142.759 195.398C142.759 196.304 143.499 197.044 144.405 197.044H160.316C161.221 197.044 161.962 196.303 161.962 195.398C161.962 194.493 161.221 193.752 160.316 193.752Z" fill="#A6C7F9"/>
<path d="M148.029 199.741H144.405C143.5 199.741 142.759 200.482 142.759 201.387C142.759 202.292 143.499 203.033 144.405 203.033H148.029C148.934 203.033 149.675 202.292 149.675 201.387C149.675 200.482 148.934 199.741 148.029 199.741Z" fill="#A6C7F9"/>
<path d="M75.096 256.058V358.015H252.182V256.058H75.096Z" fill="#AED3FF"/>
<path d="M80.854 256.058V358.015H257.94V256.058H80.854Z" fill="#739AF0"/>
<path d="M129.284 335.908C146.968 335.908 161.303 321.573 161.303 303.889C161.303 286.205 146.968 271.87 129.284 271.87C111.6 271.87 97.265 286.205 97.265 303.889C97.265 321.573 111.6 335.908 129.284 335.908Z" fill="#F3F9FF"/>
<path d="M184.988 292.993H238.031C239.953 292.993 241.526 291.42 241.526 289.498C241.526 287.576 239.953 286.003 238.031 286.003H184.988C183.066 286.003 181.493 287.576 181.493 289.498C181.493 291.42 183.066 292.993 184.988 292.993Z" fill="#F3F9FF"/>
<path d="M238.031 300.394H184.988C183.066 300.394 181.493 301.967 181.493 303.889C181.493 305.811 183.066 307.383 184.988 307.383H238.031C239.953 307.383 241.526 305.811 241.526 303.889C241.526 301.967 239.954 300.394 238.031 300.394Z" fill="#F3F9FF"/>
<path d="M238.031 314.786H184.988C183.066 314.786 181.493 316.359 181.493 318.281C181.493 320.203 183.066 321.775 184.988 321.775H238.031C239.953 321.775 241.526 320.203 241.526 318.281C241.527 316.359 239.954 314.786 238.031 314.786Z" fill="#F3F9FF"/>
<path d="M129.284 304.409L99.97 304.037C99.968 304.16 99.968 304.285 99.968 304.409C99.968 320.599 113.094 333.725 129.284 333.725C135.072 333.725 140.468 332.046 145.013 329.15L129.284 304.409Z" fill="#3A4ACE"/>
<path d="M130.364 313.64H114.453C113.548 313.64 112.807 314.38 112.807 315.286C112.807 316.191 113.548 316.932 114.453 316.932H130.364C131.269 316.932 132.01 316.191 132.01 315.286C132.01 314.38 131.269 313.64 130.364 313.64Z" fill="#A6C7F9"/>
<path d="M118.077 319.629H114.453C113.548 319.629 112.807 320.37 112.807 321.275C112.807 322.18 113.548 322.921 114.453 322.921H118.077C118.983 322.921 119.723 322.181 119.723 321.275C119.723 320.369 118.983 319.629 118.077 319.629Z" fill="#A6C7F9"/>
<path d="M252.185 29.784H75.096V122.174H252.185V29.784Z" fill="#AED3FF"/>
<path d="M257.94 29.784H80.854V122.174H257.94V29.784Z" fill="#739AF0"/>
<path d="M129.284 109.356C146.968 109.356 161.303 95.0206 161.303 77.337C161.303 59.6534 146.968 45.318 129.284 45.318C111.6 45.318 97.265 59.6534 97.265 77.337C97.265 95.0206 111.6 109.356 129.284 109.356Z" fill="#F3F9FF"/>
<path d="M129.285 48.024C113.095 48.024 99.969 61.148 99.969 77.337C99.969 88.428 106.13 98.081 115.216 103.06C119.912 94.362 129.286 77.337 129.286 77.337L143.166 103.161C152.356 98.213 158.599 88.504 158.599 77.337C158.598 61.147 145.475 48.024 129.285 48.024Z" fill="#3A4ACE"/>
<path d="M238.032 59.45H184.989C183.067 59.45 181.494 61.023 181.494 62.945C181.494 64.867 183.067 66.44 184.989 66.44H238.032C239.954 66.44 241.527 64.867 241.527 62.945C241.527 61.023 239.954 59.45 238.032 59.45Z" fill="#F3F9FF"/>
<path d="M238.032 73.842H184.989C183.067 73.842 181.494 75.415 181.494 77.337C181.494 79.259 183.067 80.832 184.989 80.832H238.032C239.954 80.832 241.527 79.259 241.527 77.337C241.527 75.415 239.954 73.842 238.032 73.842Z" fill="#F3F9FF"/>
<path d="M238.032 88.233H184.989C183.067 88.233 181.494 89.807 181.494 91.729C181.494 93.651 183.067 95.224 184.989 95.224H238.032C239.954 95.224 241.527 93.651 241.527 91.729C241.527 89.807 239.954 88.233 238.032 88.233Z" fill="#F3F9FF"/>
<path d="M130.364 63.336H114.454C113.549 63.336 112.808 64.077 112.808 64.982C112.808 65.887 113.549 66.628 114.454 66.628H130.364C131.27 66.628 132.01 65.887 132.01 64.982C132.01 64.077 131.27 63.336 130.364 63.336Z" fill="#6D89D0"/>
<path d="M118.077 69.325H114.453C113.548 69.325 112.807 70.066 112.807 70.971C112.807 71.876 113.548 72.617 114.453 72.617H118.077C118.982 72.617 119.723 71.876 119.723 70.971C119.723 70.066 118.983 69.325 118.077 69.325Z" fill="#6D89D0"/>
<path d="M299.015 189.341C299.015 189.341 319.672 210.665 320.663 218.705C321.654 226.747 310.835 239.325 310.835 239.325L299.015 189.341Z" fill="#F2564B"/>
<path d="M290.183 410.556C290.183 410.556 289.48 421.893 287.287 422.056C286.995 422.077 276.163 422.077 276.163 422.077L262.335 421.997C262.335 421.997 262.426 418.666 266.468 417.961C270.51 417.257 277.275 414.416 279.724 409.074C282.3 403.454 290.183 410.556 290.183 410.556Z" fill="#163560"/>
<path d="M320.983 410.556C320.983 410.556 320.28 421.893 318.087 422.056C317.795 422.077 306.963 422.077 306.963 422.077L293.093 422.027C293.093 422.027 293.225 418.666 297.267 417.961C301.309 417.257 308.075 414.416 310.523 409.074C313.099 403.454 320.983 410.556 320.983 410.556Z" fill="#163560"/>
<path d="M274.869 288.989C274.869 288.989 278.486 312.12 291.977 353.179C305.468 394.24 307.307 412.019 307.307 412.019C307.307 412.019 310.956 412.549 314.811 412.549C317.249 412.549 321.78 411.613 321.78 411.613C321.78 411.613 321.904 366.739 315.686 346.092C309.468 325.444 314.344 271.655 314.344 271.655L274.869 288.989Z" fill="#163560"/>
<path d="M267.826 272.923C267.826 272.923 267.314 307.778 273.345 350.575C279.376 393.372 277.332 411.538 277.332 411.538C277.332 411.538 282.297 412.429 284.041 412.485C285.907 412.548 291.776 412.018 291.776 412.018C291.776 412.018 300.408 369.205 297.933 347.786C295.458 326.364 309.753 274.281 309.753 274.281L267.826 272.923Z" fill="#1C468A"/>
<path d="M295.788 191.356L288.975 196.402L279.129 194.329C279.266 193.431 279.916 189.71 280.508 186.339C280.543 186.14 280.579 185.942 280.612 185.747C281.119 182.879 281.557 180.415 281.557 180.415L290.753 175.832L294.182 174.124C294.173 174.184 293.916 177.307 293.88 177.763C293.237 185.857 295.788 191.356 295.788 191.356Z" fill="#FC9490"/>
<path d="M279.819 188.81C280.035 188.719 293.213 184.831 294.644 185.304C296.076 185.776 296.923 188.546 296.923 188.546L275.369 193.42C275.368 193.42 277.065 189.97 279.819 188.81Z" fill="#F2564B"/>
<path d="M315.303 277.226C313.069 287.415 275.896 288.624 266.313 279.374C265.223 278.32 265.169 273.416 265.58 266.802C266.384 253.88 268.966 234.444 269.067 224.514C269.116 219.717 269.775 214.813 270.652 210.359C272.52 200.866 275.367 193.418 275.367 193.418C275.367 193.418 293.524 187.547 296.921 188.546C313.29 193.355 317.536 267.038 315.303 277.226Z" fill="#FB7369"/>
<path d="M265.58 266.802C266.384 253.88 268.966 234.444 269.067 224.514C269.116 219.717 269.775 214.813 270.652 210.359L281.575 208.432C281.575 208.432 292.254 252.049 265.58 266.802Z" fill="#F2564B"/>
<path d="M271.496 248.793C271.496 248.793 272.24 250.571 270.677 251.767C269.113 252.961 268.099 254.898 268.457 256.312C268.815 257.727 272.245 260.035 273.433 259.664C274.622 259.291 277.042 257.428 276.782 256.682C276.521 255.936 278.409 250.134 275.511 247.9C272.612 245.665 271.496 248.793 271.496 248.793Z" fill="#FC9490"/>
<path d="M283.708 190.804C283.708 190.804 273.056 192.797 264.568 205.305C256.081 217.813 250.497 227.112 252.06 231.62C253.624 236.128 267.875 251.764 270.332 251.764C272.79 251.764 276.754 249.977 276.978 245.957C276.978 245.957 266.944 230.918 268.921 228.666C269.765 227.703 281.947 217.813 283.687 222.28C286.565 229.671 283.708 190.804 283.708 190.804Z" fill="#FB7369"/>
<path d="M293.19 177.905C291.171 181.769 283.646 185.111 280.508 186.339C280.543 186.14 280.579 185.942 280.612 185.747C281.119 182.879 281.557 180.415 281.557 180.415L290.753 175.832C292.786 175.801 294.023 176.316 293.19 177.905Z" fill="#FCA56B"/>
<path d="M278.594 180.626C278.594 180.626 292.207 184.873 294.72 176.354C297.234 167.836 300.684 162.647 292.099 159.577C283.514 156.506 280.858 159.255 279.328 161.894C277.799 164.532 275.118 179.301 278.594 180.626Z" fill="#FC9490"/>
<path d="M279.864 161.073C279.864 161.073 280.732 170.985 282.781 170.554C284.83 170.124 286.69 169.805 286.389 172.793C286.089 175.781 283.247 179.231 289.564 179.76C295.881 180.288 304.963 163.996 303.228 160.912C298.221 152.011 272.626 150.215 279.864 161.073Z" fill="#163560"/>
<path d="M34.779 391.407L38.923 408.862L45.13 408.827L45.358 391.407H34.779Z" fill="#FC9490"/>
<path d="M86.994 392.151L98.785 408.862L103.381 402.962L96.284 389.854L86.994 392.151Z" fill="#FC9490"/>
<path d="M56.337 162.044C54.194 160.826 51.626 160.693 49.83 160.799C50.293 160.321 51.203 160.148 51.203 160.148C50.089 159.982 47.603 161.087 47.603 161.087C32.109 155.117 29.674 177.93 29.999 183.23C30.322 188.529 24.792 190.261 16.731 194.437C1.35 202.405 0 213.074 0 213.074C0.12 213.144 0.245 213.225 0.378 213.316C1.141 212.024 2.712 209.596 4.037 209.23C3.987 209.347 2.472 212.572 1.906 214.42C6.444 217.871 14.931 225.519 20.847 230.941C20.821 229.88 20.863 228.377 21.25 227.583L21.98 231.983C25.146 234.893 27.329 236.941 27.329 236.941C26.938 232.658 46.7 210.056 57.011 203.286C59.521 199.591 60.413 193.063 60.48 192.55C60.046 197.726 59.161 200.629 58.37 202.263C67.1 194.229 62.017 165.271 56.337 162.044Z" fill="#163560"/>
<path d="M56.401 203.624C56.452 203.647 51.422 206.259 47.64 205.224C44.081 204.254 41.755 199.639 41.805 199.629C43.312 199.329 43.747 197.259 43.715 188.359L44.397 188.494L55.853 190.762C55.853 190.762 55.592 194.367 55.584 197.763C55.574 200.615 55.747 203.32 56.401 203.624Z" fill="#FC9490"/>
<path d="M43.446 165.779C43.446 165.779 49.097 159.763 56.192 165.471C56.192 165.472 52.063 164.757 43.446 165.779Z" fill="#E37970"/>
<path d="M55.851 190.762C55.851 190.762 55.59 194.367 55.582 197.763C49.171 197.583 45.783 191.734 44.395 188.493L55.851 190.762Z" fill="#FF8585"/>
<path d="M43.212 187.246C43.212 187.246 39.853 181.938 39.046 177.399C38.47 174.159 40.121 162.147 52.191 163.878C52.191 163.878 55.696 164.223 58.992 166.448C61.613 168.218 65.395 172.039 61.166 182.521L60.068 186.062L43.212 187.246Z" fill="#163560"/>
<path d="M101.51 398.38L95.438 398.567L88.865 398.767C88.865 398.767 73.683 381.864 65.166 354.767C64.967 354.137 64.759 353.499 64.537 352.854C59.876 339.264 50.214 322.206 45.122 306.766C44.311 304.306 43.583 301.992 42.931 299.8C42.722 299.099 42.518 298.409 42.325 297.731C38.573 284.694 37.486 276.133 36.485 266.988L73.252 267.282C73.252 267.282 79.187 329.734 101.51 398.38Z" fill="#FB7369"/>
<path d="M68.104 246.155C68.011 263.65 70.67 271.157 70.67 271.157C70.67 271.157 54.928 279.155 36.218 273.268C35.998 273.198 20.726 269.712 20.726 269.712C21.039 269.005 23.823 257.213 24.129 256.564C28.079 248.081 31.079 244.362 31.547 241.753C32.416 236.884 32.435 231.847 32.002 227.095C30.86 214.517 27.465 204.075 27.465 204.075C32.563 202.915 37.469 200.931 42.775 198.942C43.995 200.462 47.594 201.998 50.831 201.925C54.558 201.843 55.722 200.267 55.585 198.491C59.557 200.701 62.714 202.804 62.714 202.804C66.089 208.666 72.935 214.36 73.431 223.355C73.554 225.567 68.107 245.665 68.104 246.155Z" fill="#E7F1FD"/>
<path d="M36.484 248.105C34.877 250.379 31.796 264.205 24.13 265.943C28.08 256.09 31.08 251.769 31.548 248.74C32.417 243.084 32.436 237.232 32.003 231.714C34.569 227.215 36.484 224.131 36.484 224.131C36.686 223.404 40.563 211.418 41.804 222.132C43.044 232.848 38.28 245.56 36.484 248.105Z" fill="#F2564B"/>
<path d="M57.991 193.978C57.991 193.978 42.824 194.228 42.814 184.781C42.803 175.333 40.839 169.003 50.522 168.444C60.205 167.884 62.09 171.488 62.861 174.64C63.632 177.792 61.937 193.67 57.991 193.978Z" fill="#FC9490"/>
<path d="M62.41 169.386C60.07 166.549 58.3 167.166 57.306 168.018C54.028 163.12 43.669 170.203 43.669 170.203C42.654 176.982 37.766 180.865 37.766 180.865C37.766 180.865 40.531 182.573 46.904 180.934C51.919 179.644 55.559 172.505 56.883 169.522C57.785 170.323 59.688 172.176 60.258 173.99C61.014 176.396 61.354 181.349 62.798 181.18C62.798 181.182 65.927 173.648 62.41 169.386Z" fill="#163560"/>
<path d="M38.714 407.886C38.714 407.886 39.214 411.343 37.924 415.042C37.924 415.042 36.908 419.671 41.467 419.757C46.026 419.844 47.144 419.413 46.628 416.574C46.112 413.734 45.13 408.826 45.13 408.826L38.714 407.886Z" fill="#FC9490"/>
<path d="M47.058 422.029C47.058 422.029 47.053 422.032 47.043 422.04H37.609C37.599 422.032 37.594 422.029 37.594 422.029C37.078 419.608 37.922 415.047 37.922 415.047C43.085 419.984 46.316 414.924 46.316 414.924C47.156 417.034 47.058 422.029 47.058 422.029Z" fill="#C45446"/>
<path d="M114.368 417.254C114.368 417.254 105.962 407.707 103.381 402.961L97.131 406.162L111.103 419.284L114.372 418.853L114.368 417.254Z" fill="#FC9490"/>
<path d="M119.524 422.012H107.861C106.834 421.088 105.855 419.222 104.654 416.778C103.967 415.377 102.427 414.605 100.847 414.181V422.012H98.434L96.199 413.685C94.712 410.896 95.829 408.337 96.875 406.132C98.093 406.129 101.625 407.01 107.834 414.143C109.875 416.487 112.126 417.323 114.366 417.254C114.396 417.273 114.428 417.29 114.458 417.303C117.996 418.925 119.149 420.919 119.524 422.012Z" fill="#C45446"/>
<path d="M118.958 209.657C118.958 209.657 109.001 215.224 105.445 216.828C104.18 217.398 101.889 218.465 99.548 219.558C98.134 220.217 96.704 220.889 95.466 221.472C93.375 222.453 90.888 221.915 89.385 220.159C83.994 213.865 70.043 200.222 55.635 198.512L55.585 198.49C55.585 198.49 55.587 198.495 55.591 198.506C55.586 198.506 55.579 198.505 55.573 198.504L55.653 198.659C56.463 200.673 64.361 220.407 64.606 224.569C64.864 228.957 65.638 296.313 65.638 296.313C65.638 296.313 65.122 299.41 71.058 298.119C76.994 296.829 78.542 295.539 78.542 295.539C78.542 295.539 72.865 253.99 74.413 239.537C74.717 236.702 74.442 233.516 73.808 230.224C82.583 235.539 92.929 237.904 92.929 237.904C92.929 237.904 96.788 236.22 102.784 232.505C105.301 230.944 108.22 228.452 111.094 225.819C114.566 222.636 120.54 214.948 120.54 214.948L118.958 209.657Z" fill="#E37970"/>
<path d="M95.438 398.567L88.865 398.767C88.865 398.767 73.683 381.864 65.166 354.767C64.967 354.137 64.759 353.499 64.537 352.854C59.876 339.264 50.214 322.206 45.122 306.766C44.311 304.306 43.583 301.992 42.931 299.8C42.722 299.099 42.518 298.409 42.325 297.731L47.739 293.623C47.739 293.623 63.995 319.946 69.028 344.718C73.399 366.235 90.906 392.127 95.438 398.567Z" fill="#F2564B"/>
<path d="M48.304 347.024C48.397 359.071 47.788 386.767 46.219 398.233H40.397C37.179 398.233 35.574 398.187 35.574 398.187C31.638 378.25 28.838 361.754 26.799 347.541C25.127 335.876 23.641 325.876 22.497 317.267C21.347 308.604 20.546 301.35 20.26 295.22C20.216 294.255 20.183 293.317 20.165 292.405C20.147 291.489 20.142 290.598 20.149 289.734L51.918 286.637C51.517 307.744 48.253 340.023 48.304 347.024Z" fill="#FB7369"/>
<path d="M40.397 398.233C37.179 398.233 35.574 398.187 35.574 398.187C31.638 378.25 28.838 361.754 26.799 347.541C25.127 335.876 23.641 325.876 22.497 317.267C21.347 308.604 20.546 301.35 20.26 295.22L31.917 302.077C31.917 302.077 24.477 304.702 27.315 324.573C30.154 344.443 36.446 395.421 40.397 398.233Z" fill="#F2564B"/>
<path d="M41.897 295.024C41.897 295.024 39.659 303.11 31.917 302.077C24.175 301.045 13.166 296.399 13.166 296.399C13.166 296.399 16.474 285.945 20.588 272.211C25.569 255.583 31.734 234.148 34.64 220.629C35.455 216.84 36.013 213.676 36.219 211.411L42.776 198.943C42.776 198.943 52.22 220.443 52.736 225.862C53.252 231.281 41.897 295.024 41.897 295.024Z" fill="#E37970"/>
<path d="M69.547 231.912C65.821 232.401 64.392 234.382 63.932 237.053C63.683 238.494 62.941 239.919 62.309 240.926C58.597 241.125 49.758 241.606 42.331 242.076L41.718 251.816C47.819 251.057 55.316 249.509 63.944 246.555C64.607 246.442 65.436 246.031 66.473 245.18C71.82 240.801 74.854 233.469 74.864 232.419C74.875 231.369 73.273 231.421 69.547 231.912Z" fill="#FC9490"/>
<path d="M41.553 237.216C41.207 245.991 39.143 263.024 20.735 272.141C20.686 272.164 20.637 272.19 20.588 272.21C25.569 255.582 31.734 234.147 34.64 220.628C38.021 225.681 41.742 232.386 41.553 237.216Z" fill="#C45446"/>
<path d="M42.776 198.942C42.776 198.942 27.029 200.058 23.244 208.488C19.459 216.919 18.255 244.962 23.072 253.22C23.072 253.22 29.704 255.108 41.434 252.914C41.578 252.888 41.723 252.86 41.868 252.832C41.868 252.832 45.61 243.671 42.255 241.864C42.255 241.864 32.362 242.381 33.394 239.111C34.427 235.844 42.776 198.942 42.776 198.942Z" fill="#E37970"/>
<path d="M129.633 203.041C121.161 201.952 119.023 209.658 119.023 209.658L120.605 214.95C123.216 215.31 125.501 214.631 127.607 211.617C129.712 208.604 130.292 209.761 131.63 207.519C133.446 204.478 130.605 203.345 129.633 203.041Z" fill="#FC9490"/>
<path d="M105.446 216.829C104.181 217.399 101.89 218.466 99.549 219.559C100.801 221.783 102.369 225.826 102.785 232.505C105.302 230.944 108.561 228.343 111.343 225.612C115.806 221.231 120.54 214.948 120.54 214.948L118.958 209.656C118.958 209.657 109.002 215.224 105.446 216.829Z" fill="#FC9490"/>
<path d="M554.844 278.211C554.844 278.211 548.82 279.759 544.99 278.605C541.16 277.452 534.569 279.346 533.508 280.743C532.447 282.139 532.837 282.694 534.731 283.177C536.626 283.658 543.335 286.521 547.745 284.864C552.155 283.208 557.907 283.148 557.907 283.148L554.844 278.211Z" fill="#FC9490"/>
<path d="M606.907 225.881C606.907 225.881 600.139 273.978 588.935 278.285C583.405 280.412 558.969 285.23 551.742 285.714C551.742 285.714 549.971 284.277 550.401 278.432C550.401 278.432 576.004 269.033 579.64 263.92C585.053 256.314 576.28 232.843 583.071 225.698C589.864 218.552 601.304 215.483 606.907 225.881Z" fill="#1C468A"/>
<path d="M606.043 411.204V400.717H622.553C622.999 400.717 623.363 400.354 623.363 399.907V398.226C623.363 397.782 623 397.416 622.553 397.416H606.043V337.722C606.043 336.046 604.673 334.675 602.998 334.675H599.73C598.055 334.675 596.685 336.046 596.685 337.722V397.416H580.174C579.729 397.416 579.364 397.781 579.364 398.226V399.907C579.364 400.353 579.728 400.717 580.174 400.717H596.685V411.204C584.739 412.106 575.168 416.407 572.483 421.963H630.244C627.559 416.407 617.987 412.106 606.043 411.204Z" fill="#3A4ACE"/>
<path d="M604.626 327.213C602.653 330.562 600.369 333.7 598.017 336.672C590.744 345.854 582.826 353.425 581.448 360.58C581.173 362.006 580.737 363.543 580.169 365.161C579.593 366.8 578.881 368.523 578.059 370.305C574.973 377.01 570.357 384.522 565.748 391.351C557.781 403.155 550.29 413.005 550.29 413.005L536.553 412.419C537.104 411.042 543.095 394.743 551.111 374.824C554.367 366.738 557.828 358.137 561.167 349.844C561.611 348.737 562.057 347.633 562.497 346.54C563.518 344.002 564.522 341.502 565.503 339.068C573.029 320.366 579.024 305.472 579.024 305.472C579.024 305.472 609.105 294.076 612.229 301.461C614.803 307.549 612.706 313.513 604.626 327.213Z" fill="#163560"/>
<path d="M549.86 410.506C549.86 410.506 549.157 421.842 546.964 422.005C546.673 422.026 535.841 422.026 535.841 422.026L522.012 421.945C522.012 421.945 522.104 418.614 526.145 417.91C530.188 417.206 536.954 414.365 539.402 409.023C541.977 403.404 549.86 410.506 549.86 410.506Z" fill="#163560"/>
<path d="M581.672 378.121C581.672 378.121 591.228 384.261 590.3 386.255C590.177 386.521 584.896 395.979 584.896 395.979L578.085 408.013C578.085 408.013 575.22 406.309 576.576 402.438C577.93 398.565 578.749 391.273 575.277 386.531C571.627 381.541 581.672 378.121 581.672 378.121Z" fill="#163560"/>
<path d="M568.743 300.064C568.743 300.064 530.985 323.584 526.769 339.389C522.555 355.195 576.997 388.913 576.997 388.913C576.997 388.913 582.969 383.643 584.022 379.781C584.022 379.781 559.414 350.298 554.075 343.689C550.798 339.629 602.549 329.638 608.872 319.804C615.193 309.969 612.931 301.694 612.931 301.694L568.743 300.064Z" fill="#1C468A"/>
<path d="M640.001 330.265H562.727C561.181 330.265 559.916 331.53 559.916 333.076V348.53C559.916 350.076 561.181 351.341 562.727 351.341H640.001C641.548 351.341 642.812 350.076 642.812 348.53V333.076C642.811 331.53 641.548 330.265 640.001 330.265Z" fill="#FB7369"/>
<path d="M586.202 217.636C582.494 219.933 580.451 222.849 580.451 222.849C589.497 225.19 604.492 216.807 604.492 216.807C604.492 216.807 598.669 212.895 596.513 204.299C596.404 203.865 596.304 203.421 596.216 202.966C595.934 201.518 595.759 199.951 595.726 198.259L591.572 201.982L584.662 208.172C584.662 208.172 584.819 210.74 585.683 215.158C585.832 215.929 586.005 216.755 586.202 217.636Z" fill="#FC9490"/>
<path d="M614.028 260.31C612.732 277.738 614.911 304.231 613.442 308.821C612.172 312.781 597.245 310.437 591.475 309.115C589.339 308.626 586.753 307.927 584.082 307.1C576.63 304.791 568.511 301.497 567.64 299.052C567.607 298.955 567.578 298.862 567.56 298.771C567.48 298.416 567.497 298.083 567.576 297.746C567.866 296.499 568.985 295.151 569.117 292.063C569.264 288.617 569.241 284.559 569.372 280.194C569.379 279.703 569.385 279.167 569.438 278.678L569.441 278.498C569.443 278.404 569.445 278.313 569.447 278.219C569.572 273.352 569.827 268.236 570.122 263.16C570.31 259.973 570.526 256.816 570.776 253.793C571.426 245.986 572.301 239.044 573.461 234.655C575.356 227.501 579.532 222.835 583.333 219.416L586.084 217.057C589.151 217.727 592.779 217.283 596.062 215.729C599.613 214.041 600.839 212.833 601.458 213.29C609.659 219.617 615.557 239.006 614.028 260.31Z" fill="#3A4ACE"/>
<path d="M584.125 307.134C576.674 304.826 568.554 301.532 567.684 299.086C567.65 298.99 567.621 298.897 567.603 298.806C567.608 298.463 567.613 298.122 567.619 297.781C567.91 296.534 569.029 295.185 569.16 292.098C569.307 288.652 569.285 284.593 569.416 280.229C569.422 279.738 569.429 279.202 569.482 278.712L569.484 278.532C569.486 278.439 569.488 278.347 569.491 278.254L597.637 265.489C597.635 265.49 599.257 288.173 584.125 307.134Z" fill="#1C468A"/>
<path d="M584.661 208.171C584.661 208.171 584.818 210.739 585.682 215.157C592.429 212.977 595.49 206.883 596.512 204.298C596.803 203.568 596.928 203.116 596.928 203.116C596.928 203.116 596.666 203.059 596.215 202.964C595.267 202.762 593.481 202.383 591.57 201.98L584.661 208.171Z" fill="#FF8585"/>
<path d="M581.929 208.104C581.929 208.104 596.753 209.776 597.652 200.528C598.55 191.281 601.07 185.269 591.643 183.811C582.217 182.353 580.033 185.702 578.982 188.716C577.93 191.729 578.097 207.43 581.929 208.104Z" fill="#FC9490"/>
<path d="M597.589 201.166C597.589 201.166 596.65 188.892 583.155 187.62C573.913 186.749 579.066 178.795 580.051 177.526C580.051 177.526 587.132 178.496 594.391 179.696C609.625 182.213 599.085 199.256 597.589 201.166Z" fill="#3A4ACE"/>
<path d="M514.797 256.267L513.5 256.688L524.521 290.668L525.818 290.247L514.797 256.267Z" fill="#4A75CB"/>
<path d="M562.007 287.634L524.525 288.436L524.573 290.678L562.055 289.875L562.007 287.634Z" fill="#4A75CB"/>
<path d="M557.944 285.606C557.944 285.606 552.127 287.808 548.194 287.083C544.26 286.359 537.919 288.969 537.018 290.474C536.118 291.978 536.565 292.487 538.5 292.757C540.435 293.027 547.421 295.132 551.621 292.999C555.822 290.867 561.531 290.173 561.531 290.173L557.944 285.606Z" fill="#FC9490"/>
<path d="M603.921 227.855C603.921 227.855 602.497 276.405 591.835 281.922C586.574 284.645 562.818 292.127 555.688 293.405C555.688 293.405 553.77 292.172 553.554 286.313C553.554 286.313 577.962 274.149 581.014 268.667C585.556 260.51 574.248 238.149 580.211 230.299C586.174 222.451 597.205 218.137 603.921 227.855Z" fill="#3A4ACE"/>
<path d="M767.953 423.509H7.987C7.579 423.509 7.245 423.175 7.245 422.768C7.245 422.361 7.578 422.027 7.987 422.027H767.953C768.361 422.027 768.694 422.361 768.694 422.768C768.694 423.175 768.361 423.509 767.953 423.509Z" fill="#FE9589"/>
</svg>
