<svg width="658" height="658" viewBox="0 0 658 658" fill="none" xmlns="http://www.w3.org/2000/svg">
<path d="M461.653 68.5767C444.94 64.6287 427.437 63.4706 410.513 66.4974C365.677 74.5381 331.553 109.728 293.468 134.666C268.425 151.039 240.918 163.289 211.994 170.948C181.726 178.976 148.826 182.384 123.493 200.822C101.121 217.048 87.6719 243.105 80.8682 269.859C72.5642 302.469 73.4196 338.093 87.5798 368.625C102.766 401.38 131.758 425.765 162.592 444.545C214.324 476.023 276.005 494.855 335.764 485.064C370.336 479.419 402.959 464.429 431.832 444.611C486.354 407.223 527.479 352.346 552.22 291.349C563.037 264.648 576.197 231.09 575.276 201.861C574.434 175.002 561.721 145.747 545.837 124.559C525.268 97.0549 495.119 76.499 461.653 68.5767Z" fill="#FD746C"/>
<path opacity="0.7" d="M461.653 68.5767C444.94 64.6287 427.437 63.4706 410.513 66.4974C365.677 74.5381 331.553 109.728 293.468 134.666C268.425 151.039 240.918 163.289 211.994 170.948C181.726 178.976 148.826 182.384 123.493 200.822C101.121 217.048 87.6719 243.105 80.8682 269.859C72.5642 302.469 73.4196 338.093 87.5798 368.625C102.766 401.38 131.758 425.765 162.592 444.545C214.324 476.023 276.005 494.855 335.764 485.064C370.336 479.419 402.959 464.429 431.832 444.611C486.354 407.223 527.479 352.346 552.22 291.349C563.037 264.648 576.197 231.09 575.276 201.861C574.434 175.002 561.721 145.747 545.837 124.559C525.268 97.0549 495.119 76.499 461.653 68.5767Z" fill="white"/>
<path d="M331.329 597.622C454.668 597.622 554.654 583.994 554.654 567.183C554.654 550.372 454.668 536.744 331.329 536.744C207.99 536.744 108.004 550.372 108.004 567.183C108.004 583.994 207.99 597.622 331.329 597.622Z" fill="#FD746C"/>
<path opacity="0.5" d="M331.329 597.622C454.668 597.622 554.654 583.994 554.654 567.183C554.654 550.372 454.668 536.744 331.329 536.744C207.99 536.744 108.004 550.372 108.004 567.183C108.004 583.994 207.99 597.622 331.329 597.622Z" fill="white"/>
<path d="M313.866 508.108H497.303" stroke="#263238" stroke-linecap="round" stroke-linejoin="round"/>
<path d="M146.313 508.108H289.559" stroke="#263238" stroke-linecap="round" stroke-linejoin="round"/>
<path d="M466.89 368.335H347.819V517.32H466.89V368.335Z" fill="#263238" stroke="#263238" stroke-linecap="round" stroke-linejoin="round"/>
<path d="M471.523 368.335H378.482V517.32H471.523V368.335Z" fill="white" stroke="#263238" stroke-linecap="round" stroke-linejoin="round"/>
<path d="M462.39 377.732H389.233V424.436H462.39V377.732Z" fill="white" stroke="#263238" stroke-linecap="round" stroke-linejoin="round"/>
<path d="M444.4 396.603H407.263V405.539H444.4V396.603Z" fill="#263238" stroke="#263238" stroke-linecap="round" stroke-linejoin="round"/>
<path d="M462.39 441.821H389.233V488.526H462.39V441.821Z" fill="white" stroke="#263238" stroke-linecap="round" stroke-linejoin="round"/>
<path d="M444.4 460.692H407.263V469.628H444.4V460.692Z" fill="#263238" stroke="#263238" stroke-linecap="round" stroke-linejoin="round"/>
<path d="M186.082 522.82C186.082 525.453 171.856 527.637 154.314 527.637C136.772 527.637 122.546 525.479 122.546 522.82C122.546 520.162 136.772 518.004 154.314 518.004C171.856 518.004 186.082 520.162 186.082 522.82Z" fill="#263238"/>
<path d="M122.546 522.821L113.452 482.801H195.176L186.082 522.821H122.546Z" fill="#263238"/>
<path d="M195.176 482.801C195.176 486.223 176.884 489 154.38 489C131.876 489 113.518 486.223 113.518 482.801C113.518 479.38 131.811 476.603 154.38 476.603C176.949 476.603 195.176 479.38 195.176 482.801Z" fill="#263238"/>
<path d="M187.306 482.538C187.306 483.393 184.674 484.17 180.121 484.788C171.554 485.756 162.935 486.196 154.314 486.104C145.693 486.203 137.074 485.763 128.507 484.788C124.02 484.183 121.322 483.406 121.322 482.551C121.322 480.577 136.101 478.971 154.314 478.971C172.528 478.971 187.306 480.564 187.306 482.538Z" fill="white"/>
<path d="M180.121 484.788C171.554 485.756 162.935 486.196 154.314 486.104C145.693 486.203 137.074 485.763 128.507 484.788C131.139 483.472 141.667 482.551 154.314 482.551C166.961 482.551 177.476 483.485 180.121 484.788Z" fill="#FD746C"/>
<path d="M182.727 495.856C186.03 495.277 189.372 494.54 192.689 493.737" stroke="white" stroke-linecap="round" stroke-linejoin="round"/>
<path d="M130.192 496.711C143.395 498.339 156.73 498.608 169.988 497.514" stroke="white" stroke-linecap="round" stroke-linejoin="round"/>
<path d="M116.098 494.421C116.098 494.421 119.835 495.277 126.112 496.185" stroke="white" stroke-linecap="round" stroke-linejoin="round"/>
<path d="M135.916 264.687C143.378 259.215 150.369 253.126 156.815 246.487C165.579 236.972 160.855 221.483 160.855 221.483C160.855 221.483 154.788 226.878 145.352 236.301C135.916 245.724 135.916 252.475 135.916 252.475V264.687Z" fill="#FD746C"/>
<path d="M149.616 306.72C157.084 301.255 164.075 295.167 170.514 288.52C179.266 279.084 174.554 263.595 174.554 263.595C174.554 263.595 168.487 268.977 159.052 278.413C149.616 287.849 149.616 294.587 149.616 294.587V306.72Z" fill="#FD746C"/>
<path d="M137.785 275.992C129.792 271.33 122.198 266.012 115.084 260.094C105.372 251.619 108.425 235.709 108.425 235.709C108.425 235.709 115.005 240.486 125.415 248.869C135.824 257.252 136.509 263.977 136.509 263.977L137.785 275.992Z" fill="#FD746C"/>
<path d="M155.617 325.552C147.18 321.76 139.072 317.274 131.376 312.142C120.848 304.733 122.164 288.599 122.164 288.599C122.164 288.599 129.218 292.547 140.43 299.851C151.643 307.154 153.051 313.682 153.051 313.682L155.617 325.552Z" fill="#FD746C"/>
<path d="M149.945 380.087C142.489 374.612 135.499 368.529 129.047 361.9C120.282 352.398 125.02 336.896 125.02 336.896C125.02 336.896 131.087 342.278 140.522 351.714C149.958 361.15 149.958 367.914 149.958 367.914L149.945 380.087Z" fill="#FD746C"/>
<path d="M151.814 393.142C158.432 386.646 164.489 379.602 169.922 372.086C177.252 361.558 170.383 346.819 170.383 346.819C170.383 346.819 165.119 353.03 157.144 363.716C149.169 374.402 150.103 381.061 150.103 381.061L151.814 393.142Z" fill="#FD746C"/>
<path d="M159.407 432.477C151.95 426.998 144.961 420.91 138.509 414.277C129.744 404.841 134.469 389.273 134.469 389.273C134.469 389.273 140.536 394.642 149.971 404.091C159.407 413.54 159.407 420.291 159.407 420.291V432.477Z" fill="#FD746C"/>
<path d="M150.024 467.575C144.206 460.4 138.994 452.754 134.443 444.716C128.349 433.385 136.838 419.58 136.838 419.58C136.838 419.58 141.352 426.305 148.089 437.833C154.827 449.361 153.117 455.889 153.117 455.889L150.024 467.575Z" fill="#FD746C"/>
<path d="M143.918 488.052C143.918 488.052 156.972 447.651 159.46 432.78C161.947 417.909 153.248 405.407 150.379 383.048C147.51 360.69 158.275 338.304 154.485 320.854C150.695 303.404 141.431 291.02 137.693 271.728C136.441 264.81 135.562 257.829 135.061 250.817" stroke="#263238" stroke-linecap="round" stroke-linejoin="round"/>
<path d="M126.428 260.647L136.601 268.438" stroke="#263238" stroke-linecap="round" stroke-linejoin="round"/>
<path d="M140.391 251.883L136.127 259.45" stroke="#263238" stroke-linecap="round" stroke-linejoin="round"/>
<path d="M136.601 307.247C145.352 313.616 153.867 319.999 153.867 319.999" stroke="#263238" stroke-linecap="round" stroke-linejoin="round"/>
<path d="M164.75 283.572C156.709 292.784 149.616 306.707 149.616 306.707" stroke="#263238" stroke-linecap="round" stroke-linejoin="round"/>
<path d="M131.403 353.083C138.62 360.285 144.752 368.5 149.603 377.468" stroke="#263238" stroke-linecap="round" stroke-linejoin="round"/>
<path d="M166.158 361.15C166.158 361.15 165.448 362.111 160.473 369.441C156.933 375.011 153.853 380.86 151.261 386.93" stroke="#263238" stroke-linecap="round" stroke-linejoin="round"/>
<path d="M141.799 404.209C145.466 408.246 148.79 412.582 151.735 417.172C154.695 422.135 157.26 427.323 159.407 432.688" stroke="#263238" stroke-linecap="round" stroke-linejoin="round"/>
<path d="M138.272 433.254C139.917 436.846 143.931 445.782 147.484 452.638C149.65 457.301 150.527 462.459 150.024 467.575" stroke="#263238" stroke-linecap="round" stroke-linejoin="round"/>
<path d="M196.4 350.161C192.318 345.914 188.594 341.336 185.266 336.475C180.792 329.619 185.438 320.407 185.438 320.407C185.438 320.407 188.675 324.46 193.557 331.395C198.44 338.331 197.716 342.555 197.716 342.555L196.4 350.161Z" fill="#FD746C"/>
<path d="M183.24 375.06C179.155 370.815 175.431 366.237 172.106 361.374C167.632 354.517 172.278 345.305 172.278 345.305C172.278 345.305 175.502 349.359 180.397 356.294C185.293 363.229 184.556 367.454 184.556 367.454L183.24 375.06Z" fill="#FD746C"/>
<path d="M193.926 357.097C199.465 355.056 204.823 352.551 209.941 349.609C216.956 345.345 216.758 335.027 216.758 335.027C216.758 335.027 212.113 337.291 204.691 341.41C197.268 345.529 196.097 349.688 196.097 349.688L193.926 357.097Z" fill="#FD746C"/>
<path d="M177.436 386.22C183.143 384.761 188.716 382.824 194.097 380.429C201.519 376.942 202.414 366.677 202.414 366.677C202.414 366.677 197.558 368.388 189.741 371.757C181.924 375.126 180.292 379.008 180.292 379.008L177.436 386.22Z" fill="#FD746C"/>
<path d="M175.028 421.002C180.304 418.359 185.349 415.277 190.109 411.79C196.689 406.828 195.373 396.603 195.373 396.603C195.373 396.603 190.965 399.327 184.029 404.21C177.094 409.092 176.357 413.343 176.357 413.343L175.028 421.002Z" fill="#FD746C"/>
<path d="M172.462 429.016C169.029 424.229 165.997 419.167 163.395 413.882C159.947 406.447 165.855 397.985 165.855 397.985C165.855 397.985 168.487 402.459 172.317 410.026C176.147 417.593 174.857 421.673 174.857 421.673L172.462 429.016Z" fill="#FD746C"/>
<path d="M163.895 463.403C158.779 460.478 153.915 457.132 149.353 453.401C143.128 448.137 144.984 437.925 144.984 437.925C144.984 437.925 149.221 440.899 155.867 446.19C162.513 451.48 163.013 455.731 163.013 455.731L163.895 463.403Z" fill="#FD746C"/>
<path d="M163.421 452.809C168.689 450.178 173.733 447.119 178.502 443.663C185.082 438.689 183.766 428.463 183.766 428.463C183.766 428.463 179.384 431.201 172.435 436.07C165.487 440.939 164.763 445.203 164.763 445.203L163.421 452.809Z" fill="#FD746C"/>
<path d="M165.5 475.918C169.946 472.051 174.054 467.812 177.778 463.245C182.832 456.784 179.002 447.216 179.002 447.216C179.002 447.216 175.436 450.967 169.961 457.455C164.487 463.943 164.855 468.233 164.855 468.233L165.5 475.918Z" fill="#FD746C"/>
<path d="M167.132 489.407C167.132 489.407 163.342 462.653 163.395 453.02C163.447 443.387 170.317 436.57 174.488 422.831C178.66 409.092 174.488 393.879 178.66 383.351C182.832 372.823 190.017 366.072 194.452 354.399C196.01 350.191 197.328 345.898 198.4 341.542" stroke="#263238" stroke-linecap="round" stroke-linejoin="round"/>
<path d="M202.769 348.674L195.544 352.464" stroke="#263238" stroke-linecap="round" stroke-linejoin="round"/>
<path d="M194.979 341.686L196.821 346.884" stroke="#263238" stroke-linecap="round" stroke-linejoin="round"/>
<path d="M191.294 376.771C185.161 379.864 179.121 382.943 179.121 382.943" stroke="#263238" stroke-linecap="round" stroke-linejoin="round"/>
<path d="M176.252 358.913C179.132 364.04 181.474 369.451 183.24 375.06" stroke="#263238" stroke-linecap="round" stroke-linejoin="round"/>
<path d="M189.57 406.131C184.265 409.866 179.527 414.347 175.502 419.436" stroke="#263238" stroke-linecap="round" stroke-linejoin="round"/>
<path d="M166.908 407.407C166.908 407.407 167.224 408.065 169.54 413.224C171.196 417.092 172.517 421.094 173.488 425.187" stroke="#263238" stroke-linecap="round" stroke-linejoin="round"/>
<path d="M150.932 447.874C152.5 449.46 154.185 450.924 155.972 452.257C158.801 454.703 161.404 457.398 163.75 460.31" stroke="#263238" stroke-linecap="round" stroke-linejoin="round"/>
<path d="M177.555 437.031C174.82 439.186 172.263 441.558 169.909 444.124C167.522 446.919 165.353 449.893 163.421 453.02" stroke="#263238" stroke-linecap="round" stroke-linejoin="round"/>
<path d="M176.62 455.665C175.199 457.718 171.699 462.89 168.724 466.838C166.87 469.528 165.758 472.661 165.5 475.918" stroke="#263238" stroke-linecap="round" stroke-linejoin="round"/>
<path opacity="0.2" d="M135.916 264.687C143.378 259.215 150.369 253.126 156.815 246.487C165.579 236.972 160.855 221.483 160.855 221.483C160.855 221.483 154.788 226.878 145.352 236.301C135.916 245.724 135.916 252.475 135.916 252.475V264.687Z" fill="black"/>
<path opacity="0.2" d="M149.616 306.72C157.084 301.255 164.075 295.167 170.514 288.52C179.266 279.084 174.554 263.595 174.554 263.595C174.554 263.595 168.487 268.977 159.052 278.413C149.616 287.849 149.616 294.587 149.616 294.587V306.72Z" fill="black"/>
<path opacity="0.2" d="M137.785 275.992C129.792 271.33 122.198 266.012 115.084 260.094C105.372 251.619 108.425 235.709 108.425 235.709C108.425 235.709 115.005 240.486 125.415 248.869C135.824 257.252 136.509 263.977 136.509 263.977L137.785 275.992Z" fill="black"/>
<path opacity="0.2" d="M155.617 325.552C147.18 321.76 139.072 317.274 131.376 312.142C120.848 304.733 122.164 288.599 122.164 288.599C122.164 288.599 129.218 292.547 140.43 299.851C151.643 307.154 153.051 313.682 153.051 313.682L155.617 325.552Z" fill="black"/>
<path opacity="0.2" d="M149.945 380.087C142.489 374.612 135.499 368.529 129.047 361.9C120.282 352.398 125.02 336.896 125.02 336.896C125.02 336.896 131.087 342.278 140.522 351.714C149.958 361.15 149.958 367.914 149.958 367.914L149.945 380.087Z" fill="black"/>
<path opacity="0.2" d="M159.407 432.477C151.95 426.998 144.961 420.91 138.509 414.277C129.744 404.841 134.469 389.273 134.469 389.273C134.469 389.273 140.536 394.642 149.971 404.091C159.407 413.54 159.407 420.291 159.407 420.291V432.477Z" fill="black"/>
<path opacity="0.2" d="M196.4 350.161C192.318 345.914 188.594 341.336 185.266 336.475C180.792 329.619 185.438 320.407 185.438 320.407C185.438 320.407 188.675 324.46 193.557 331.395C198.44 338.331 197.716 342.555 197.716 342.555L196.4 350.161Z" fill="black"/>
<path opacity="0.2" d="M180.397 356.294C175.502 349.359 172.278 345.305 172.278 345.305C171.784 346.349 171.379 347.431 171.067 348.543C170.672 347.49 170.383 346.871 170.383 346.871C170.383 346.871 165.119 353.083 157.144 363.769C149.169 374.455 150.103 381.114 150.103 381.114L151.814 393.142C158.432 386.645 164.489 379.602 169.922 372.086C171.783 369.347 172.908 366.174 173.186 362.874C176.226 367.179 179.587 371.248 183.24 375.047L184.556 367.441C184.556 367.441 185.293 363.216 180.397 356.294Z" fill="black"/>
<path opacity="0.2" d="M193.926 357.097C199.465 355.056 204.823 352.551 209.941 349.609C216.956 345.345 216.758 335.027 216.758 335.027C216.758 335.027 212.113 337.291 204.691 341.41C197.268 345.529 196.097 349.688 196.097 349.688L193.926 357.097Z" fill="black"/>
<path opacity="0.2" d="M177.436 386.22C183.143 384.761 188.716 382.824 194.097 380.429C201.519 376.942 202.414 366.677 202.414 366.677C202.414 366.677 197.558 368.388 189.741 371.757C181.924 375.126 180.292 379.008 180.292 379.008L177.436 386.22Z" fill="black"/>
<path opacity="0.2" d="M175.028 421.002C180.304 418.359 185.349 415.277 190.109 411.79C196.689 406.828 195.373 396.603 195.373 396.603C195.373 396.603 190.965 399.327 184.029 404.21C177.094 409.092 176.357 413.343 176.357 413.343L175.028 421.002Z" fill="black"/>
<path opacity="0.2" d="M172.462 429.016C169.029 424.229 165.997 419.167 163.395 413.882C159.947 406.447 165.855 397.985 165.855 397.985C165.855 397.985 168.487 402.459 172.317 410.026C176.147 417.593 174.857 421.673 174.857 421.673L172.462 429.016Z" fill="black"/>
<path opacity="0.2" d="M163.895 463.403L163.013 455.731C163.013 455.731 162.513 451.467 155.867 446.19C153.696 444.453 151.774 442.966 150.182 441.755C149.59 440.531 148.866 439.215 148.103 437.807C141.365 426.384 136.864 419.58 136.864 419.58C136.864 419.58 128.376 433.385 134.469 444.716C139.012 452.753 144.215 460.399 150.024 467.575L153.024 456.27C156.499 458.867 160.129 461.249 163.895 463.403Z" fill="black"/>
<path opacity="0.2" d="M163.421 452.809C168.689 450.178 173.733 447.119 178.502 443.663C185.082 438.689 183.766 428.463 183.766 428.463C183.766 428.463 179.384 431.201 172.435 436.07C165.487 440.939 164.763 445.203 164.763 445.203L163.421 452.809Z" fill="black"/>
<path opacity="0.2" d="M165.5 475.918C169.946 472.051 174.054 467.812 177.778 463.245C182.832 456.784 179.002 447.216 179.002 447.216C179.002 447.216 175.436 450.967 169.961 457.455C164.487 463.943 164.855 468.233 164.855 468.233L165.5 475.918Z" fill="black"/>
<path d="M530.519 87.356H132.126V300.68H530.519V87.356Z" fill="#263238"/>
<path d="M520.044 98.7393H142.944V290.257H520.044V98.7393Z" fill="white"/>
<path d="M256.699 111.86V263.753" stroke="#263238" stroke-linecap="round" stroke-linejoin="round"/>
<path d="M385.062 111.86V268.951" stroke="#263238" stroke-linecap="round" stroke-linejoin="round"/>
<path d="M175.87 142.72H475.155" stroke="#263238" stroke-linecap="round" stroke-linejoin="round"/>
<path d="M194.9 119.611H190.662V117.611H201.493V119.611H197.268V130.363H194.9V119.611Z" fill="#263238"/>
<path d="M201.269 125.507C201.23 124.473 201.5 123.451 202.046 122.573C202.592 121.694 203.388 120.999 204.332 120.577C205.276 120.154 206.325 120.024 207.344 120.202C208.363 120.38 209.305 120.859 210.05 121.577C210.794 122.295 211.307 123.219 211.522 124.231C211.737 125.243 211.645 126.296 211.257 127.254C210.869 128.213 210.203 129.034 209.345 129.611C208.486 130.189 207.475 130.496 206.441 130.494C205.768 130.531 205.094 130.428 204.463 130.192C203.831 129.957 203.255 129.594 202.769 129.126C202.284 128.658 201.901 128.095 201.642 127.473C201.384 126.85 201.257 126.181 201.269 125.507ZM209.349 125.507C209.321 124.942 209.128 124.397 208.794 123.941C208.459 123.484 207.999 123.136 207.468 122.938C206.938 122.741 206.362 122.703 205.81 122.83C205.259 122.956 204.757 123.241 204.366 123.65C203.975 124.059 203.712 124.573 203.61 125.13C203.508 125.686 203.571 126.26 203.792 126.781C204.013 127.302 204.381 127.747 204.852 128.061C205.323 128.374 205.875 128.543 206.441 128.547C206.837 128.557 207.231 128.484 207.597 128.333C207.963 128.182 208.294 127.956 208.568 127.67C208.841 127.384 209.052 127.044 209.187 126.671C209.322 126.298 209.377 125.902 209.349 125.507Z" fill="#263238"/>
<path d="M228.405 116.834V130.363H226.22V129.047C225.819 129.498 225.32 129.852 224.761 130.08C224.202 130.308 223.598 130.405 222.996 130.363C221.673 130.363 220.405 129.837 219.469 128.902C218.534 127.967 218.009 126.698 218.009 125.375C218.009 124.053 218.534 122.784 219.469 121.849C220.405 120.913 221.673 120.388 222.996 120.388C223.583 120.36 224.169 120.464 224.711 120.692C225.253 120.919 225.737 121.265 226.128 121.704V116.703L228.405 116.834ZM226.168 125.507C226.142 124.938 225.95 124.389 225.615 123.929C225.28 123.468 224.817 123.116 224.284 122.916C223.751 122.715 223.171 122.676 222.616 122.803C222.06 122.93 221.555 123.217 221.161 123.628C220.767 124.039 220.503 124.558 220.401 125.118C220.299 125.678 220.364 126.256 220.587 126.78C220.811 127.304 221.183 127.75 221.658 128.064C222.133 128.379 222.69 128.546 223.259 128.547C223.655 128.555 224.048 128.481 224.413 128.329C224.778 128.178 225.108 127.952 225.382 127.666C225.655 127.38 225.866 127.041 226.001 126.669C226.137 126.297 226.193 125.902 226.168 125.507Z" fill="#263238"/>
<path d="M230.603 125.507C230.563 124.473 230.834 123.451 231.38 122.573C231.926 121.694 232.722 120.999 233.666 120.577C234.61 120.154 235.659 120.024 236.678 120.202C237.697 120.38 238.639 120.859 239.383 121.577C240.128 122.295 240.641 123.219 240.856 124.231C241.071 125.243 240.978 126.296 240.59 127.254C240.202 128.213 239.536 129.034 238.678 129.611C237.82 130.189 236.809 130.496 235.775 130.494C235.101 130.531 234.428 130.428 233.796 130.192C233.165 129.957 232.588 129.594 232.103 129.126C231.618 128.658 231.234 128.095 230.976 127.473C230.718 126.85 230.591 126.181 230.603 125.507ZM238.683 125.507C238.655 124.942 238.461 124.397 238.127 123.941C237.793 123.484 237.332 123.136 236.802 122.938C236.272 122.741 235.696 122.703 235.144 122.83C234.593 122.956 234.09 123.241 233.699 123.65C233.308 124.059 233.045 124.573 232.944 125.13C232.842 125.686 232.905 126.26 233.126 126.781C233.346 127.302 233.715 127.747 234.186 128.061C234.656 128.374 235.209 128.543 235.775 128.547C236.171 128.557 236.564 128.484 236.931 128.333C237.297 128.182 237.627 127.956 237.901 127.67C238.175 127.384 238.386 127.044 238.521 126.671C238.655 126.298 238.711 125.902 238.683 125.507Z" fill="#263238"/>
<path d="M294.521 117.611H300.048C304.193 117.611 307.023 120.164 307.023 123.993C307.023 127.823 304.193 130.363 300.048 130.363H294.521V117.611ZM300.048 128.363C300.643 128.395 301.238 128.306 301.797 128.101C302.357 127.896 302.868 127.579 303.301 127.169C303.733 126.76 304.078 126.266 304.313 125.719C304.549 125.172 304.67 124.583 304.67 123.987C304.67 123.391 304.549 122.802 304.313 122.255C304.078 121.707 303.733 121.214 303.301 120.804C302.868 120.395 302.357 120.078 301.797 119.873C301.238 119.668 300.643 119.579 300.048 119.611H296.955V128.363H300.048Z" fill="#263238"/>
<path d="M308.576 125.507C308.536 124.474 308.807 123.453 309.352 122.574C309.897 121.696 310.693 121.001 311.636 120.578C312.579 120.155 313.627 120.024 314.646 120.201C315.664 120.378 316.607 120.856 317.352 121.572C318.097 122.289 318.61 123.212 318.827 124.223C319.044 125.234 318.953 126.286 318.567 127.245C318.181 128.204 317.517 129.026 316.661 129.605C315.804 130.184 314.794 130.494 313.761 130.494C313.087 130.532 312.412 130.431 311.779 130.197C311.145 129.962 310.567 129.599 310.081 129.131C309.594 128.663 309.209 128.1 308.95 127.476C308.691 126.852 308.564 126.182 308.576 125.507ZM316.656 125.507C316.628 124.941 316.434 124.396 316.099 123.94C315.764 123.483 315.303 123.134 314.772 122.937C314.241 122.74 313.664 122.703 313.112 122.831C312.561 122.958 312.058 123.245 311.668 123.655C311.277 124.065 311.016 124.58 310.915 125.138C310.815 125.695 310.88 126.27 311.103 126.79C311.325 127.311 311.696 127.755 312.168 128.067C312.641 128.379 313.194 128.546 313.761 128.547C314.156 128.557 314.549 128.484 314.915 128.333C315.281 128.182 315.61 127.956 315.883 127.67C316.156 127.383 316.366 127.043 316.499 126.67C316.632 126.298 316.685 125.901 316.656 125.507Z" fill="#263238"/>
<path d="M320.841 117.663C320.84 117.479 320.878 117.296 320.952 117.127C321.026 116.958 321.135 116.807 321.272 116.683C321.408 116.559 321.569 116.465 321.744 116.407C321.919 116.349 322.105 116.329 322.288 116.347C322.473 116.327 322.66 116.346 322.837 116.403C323.013 116.46 323.176 116.553 323.314 116.678C323.452 116.802 323.562 116.954 323.637 117.124C323.712 117.294 323.75 117.478 323.749 117.663C323.715 118.025 323.547 118.361 323.278 118.606C323.009 118.85 322.658 118.986 322.295 118.986C321.932 118.986 321.581 118.85 321.312 118.606C321.043 118.361 320.875 118.025 320.841 117.663ZM321.143 120.637H323.42V130.363H321.104L321.143 120.637Z" fill="#263238"/>
<path d="M336.014 124.783V130.363H333.724V125.099C333.724 123.362 332.869 122.467 331.408 122.467C331.029 122.453 330.651 122.521 330.301 122.667C329.951 122.813 329.636 123.032 329.378 123.311C329.121 123.59 328.927 123.921 328.809 124.282C328.692 124.643 328.653 125.025 328.697 125.402V130.323H326.368V120.638H328.539V121.954C328.967 121.5 329.49 121.147 330.07 120.92C330.65 120.692 331.273 120.596 331.895 120.638C332.451 120.589 333.01 120.663 333.534 120.854C334.057 121.046 334.533 121.35 334.926 121.746C335.319 122.141 335.62 122.618 335.808 123.143C335.996 123.668 336.067 124.228 336.014 124.783Z" fill="#263238"/>
<path d="M348.74 120.638V128.889C348.74 132.429 346.898 134.035 343.476 134.035C341.792 134.122 340.125 133.66 338.725 132.719L339.752 130.995C340.787 131.77 342.05 132.182 343.344 132.166C345.489 132.166 346.437 131.179 346.437 129.218V128.705C346.017 129.143 345.509 129.487 344.947 129.714C344.384 129.941 343.78 130.045 343.173 130.021C342.535 130.055 341.896 129.958 341.295 129.737C340.695 129.516 340.146 129.174 339.682 128.734C339.218 128.294 338.849 127.764 338.596 127.176C338.343 126.589 338.213 125.956 338.213 125.316C338.213 124.676 338.343 124.043 338.596 123.456C338.849 122.868 339.218 122.338 339.682 121.898C340.146 121.458 340.695 121.116 341.295 120.895C341.896 120.674 342.535 120.578 343.173 120.611C343.806 120.579 344.439 120.689 345.024 120.932C345.609 121.176 346.132 121.547 346.555 122.019V120.703L348.74 120.638ZM346.49 125.204C346.524 124.615 346.381 124.029 346.079 123.521C345.777 123.013 345.331 122.608 344.797 122.356C344.263 122.104 343.666 122.017 343.082 122.107C342.499 122.197 341.955 122.46 341.522 122.861C341.089 123.262 340.785 123.783 340.651 124.358C340.516 124.933 340.556 125.535 340.766 126.087C340.976 126.639 341.347 127.115 341.829 127.455C342.312 127.795 342.886 127.983 343.476 127.994C343.857 128.024 344.24 127.973 344.601 127.845C344.961 127.718 345.291 127.516 345.569 127.253C345.847 126.99 346.066 126.672 346.213 126.319C346.361 125.966 346.432 125.586 346.424 125.204H346.49Z" fill="#263238"/>
<path d="M415.672 117.611H421.252C425.384 117.611 428.213 120.164 428.213 123.993C428.213 127.823 425.384 130.363 421.252 130.363H415.672V117.611ZM421.12 128.363C421.715 128.395 422.31 128.306 422.869 128.101C423.429 127.896 423.94 127.579 424.373 127.169C424.805 126.76 425.15 126.266 425.385 125.719C425.621 125.172 425.742 124.583 425.742 123.987C425.742 123.391 425.621 122.802 425.385 122.255C425.15 121.707 424.805 121.214 424.373 120.804C423.94 120.395 423.429 120.078 422.869 119.873C422.31 119.668 421.715 119.579 421.12 119.611H418.027V128.363H421.12Z" fill="#263238"/>
<path d="M429.713 125.507C429.671 124.47 429.941 123.445 430.486 122.562C431.032 121.68 431.829 120.981 432.775 120.556C433.721 120.13 434.773 119.997 435.795 120.175C436.818 120.352 437.763 120.831 438.511 121.55C439.259 122.269 439.774 123.196 439.991 124.21C440.208 125.225 440.116 126.281 439.727 127.243C439.339 128.205 438.671 129.029 437.811 129.608C436.95 130.188 435.936 130.496 434.899 130.495C434.224 130.533 433.55 130.431 432.916 130.197C432.283 129.962 431.705 129.599 431.218 129.131C430.732 128.663 430.347 128.1 430.088 127.476C429.829 126.852 429.702 126.182 429.713 125.507ZM437.794 125.507C437.765 124.941 437.572 124.396 437.237 123.94C436.902 123.483 436.441 123.135 435.91 122.937C435.379 122.74 434.802 122.703 434.25 122.831C433.698 122.958 433.196 123.245 432.806 123.655C432.415 124.065 432.153 124.581 432.053 125.138C431.952 125.695 432.018 126.27 432.24 126.79C432.463 127.311 432.834 127.755 433.306 128.067C433.779 128.379 434.332 128.546 434.899 128.547C435.294 128.557 435.687 128.484 436.053 128.333C436.418 128.182 436.748 127.956 437.021 127.67C437.294 127.383 437.504 127.043 437.637 126.67C437.77 126.298 437.823 125.901 437.794 125.507Z" fill="#263238"/>
<path d="M451.875 124.783V130.363H449.598V125.099C449.598 123.362 448.743 122.467 447.282 122.467C446.902 122.451 446.523 122.518 446.171 122.663C445.819 122.808 445.502 123.027 445.243 123.306C444.984 123.585 444.789 123.917 444.671 124.279C444.552 124.64 444.514 125.024 444.558 125.402V130.323H442.281V120.638H444.453V121.954C444.881 121.501 445.404 121.149 445.984 120.921C446.564 120.694 447.187 120.597 447.808 120.638C448.36 120.597 448.913 120.677 449.43 120.872C449.948 121.067 450.416 121.373 450.803 121.767C451.19 122.162 451.487 122.636 451.672 123.157C451.857 123.678 451.926 124.233 451.875 124.783Z" fill="#263238"/>
<path d="M463.995 126.231H456.349C456.498 126.939 456.902 127.568 457.485 127.997C458.067 128.427 458.787 128.627 459.508 128.56C459.996 128.578 460.482 128.493 460.935 128.312C461.388 128.131 461.799 127.856 462.14 127.507L463.364 128.915C462.627 129.658 461.692 130.175 460.67 130.403C459.649 130.631 458.583 130.562 457.6 130.203C456.617 129.845 455.757 129.212 455.123 128.379C454.488 127.547 454.105 126.55 454.02 125.507C454 124.843 454.116 124.182 454.362 123.565C454.608 122.948 454.978 122.388 455.45 121.921C455.921 121.453 456.484 121.087 457.103 120.846C457.722 120.605 458.383 120.494 459.047 120.519C459.71 120.494 460.372 120.608 460.988 120.854C461.604 121.1 462.163 121.473 462.626 121.947C463.09 122.422 463.449 122.989 463.68 123.611C463.912 124.233 464.01 124.897 463.969 125.559C464.022 125.744 464.008 126.007 463.995 126.231ZM456.336 124.717H461.916C461.824 124.05 461.493 123.439 460.985 122.996C460.477 122.553 459.826 122.31 459.152 122.31C458.479 122.31 457.828 122.553 457.32 122.996C456.812 123.439 456.481 124.05 456.389 124.717H456.336Z" fill="#263238"/>
<path d="M180.016 162.539C180.016 162.539 176.357 170.356 181.687 179.923L195.65 178.318C195.65 178.318 193.373 165.461 193.491 160.644L180.016 162.539Z" fill="#FD746C" stroke="#263238" stroke-miterlimit="10"/>
<path d="M180.016 161.723L193.491 160.644C194.084 165.326 195.219 169.924 196.874 174.344L183.227 176.054C181.559 171.431 180.481 166.616 180.016 161.723Z" fill="white" stroke="#263238" stroke-miterlimit="10"/>
<path d="M199.756 187.056L213.231 185.99C213.825 190.668 214.96 195.261 216.614 199.677L202.967 201.348C201.309 196.735 200.23 191.935 199.756 187.056Z" fill="#FD746C" stroke="#263238" stroke-miterlimit="10"/>
<path d="M203.506 213.547L216.995 212.481C217.581 217.159 218.712 221.752 220.364 226.168L206.717 227.878C205.056 223.253 203.978 218.439 203.506 213.547Z" fill="white" stroke="#263238" stroke-miterlimit="10"/>
<path d="M218.127 161.618L233.222 160.644C233.123 166.118 233.992 171.567 235.788 176.739L220.838 178.476C220.838 178.476 218.127 174.383 218.127 161.618Z" fill="white" stroke="#263238" stroke-miterlimit="10"/>
<path d="M220.364 159.236L235.459 158.275C235.381 163.753 236.272 169.202 238.091 174.37L223.141 176.107C223.141 176.107 220.364 171.962 220.364 159.236Z" fill="#FD746C" stroke="#263238" stroke-miterlimit="10"/>
<path d="M232.261 162.644C232.263 162.759 232.241 162.873 232.198 162.979C232.155 163.085 232.091 163.182 232.01 163.263C231.929 163.344 231.833 163.407 231.727 163.45C231.621 163.493 231.507 163.515 231.392 163.513C231.277 163.515 231.163 163.494 231.056 163.451C230.949 163.408 230.852 163.344 230.77 163.263C230.688 163.182 230.622 163.086 230.578 162.98C230.533 162.874 230.511 162.76 230.511 162.644C230.511 162.411 230.603 162.186 230.769 162.021C230.934 161.856 231.158 161.763 231.392 161.763C231.507 161.763 231.621 161.786 231.728 161.83C231.834 161.875 231.93 161.94 232.011 162.022C232.092 162.104 232.156 162.201 232.199 162.308C232.241 162.415 232.263 162.529 232.261 162.644Z" fill="#263238"/>
<path d="M190.82 164.395C190.822 164.509 190.801 164.623 190.758 164.729C190.714 164.835 190.651 164.932 190.57 165.013C190.489 165.094 190.392 165.158 190.286 165.201C190.18 165.244 190.066 165.265 189.951 165.263C189.836 165.265 189.722 165.244 189.615 165.201C189.508 165.158 189.411 165.094 189.329 165.014C189.247 164.933 189.182 164.836 189.137 164.73C189.093 164.624 189.07 164.51 189.07 164.395C189.07 164.161 189.163 163.937 189.328 163.771C189.493 163.606 189.718 163.513 189.951 163.513C190.067 163.513 190.181 163.536 190.287 163.58C190.393 163.625 190.489 163.69 190.57 163.772C190.651 163.854 190.715 163.951 190.758 164.058C190.801 164.165 190.822 164.279 190.82 164.395Z" fill="#263238"/>
<path d="M207.244 189.385C207.244 189.56 207.192 189.73 207.095 189.875C206.998 190.02 206.86 190.133 206.699 190.2C206.538 190.267 206.361 190.284 206.19 190.25C206.019 190.216 205.862 190.132 205.738 190.009C205.615 189.886 205.531 189.728 205.497 189.557C205.463 189.386 205.481 189.209 205.547 189.048C205.614 188.887 205.727 188.749 205.872 188.652C206.017 188.555 206.188 188.504 206.362 188.504C206.596 188.504 206.82 188.597 206.985 188.762C207.151 188.927 207.244 189.152 207.244 189.385Z" fill="#263238"/>
<path d="M226.957 191.623L239.88 190.307C239.997 196.146 240.85 201.947 242.42 207.573L229.195 208.744C229.195 208.744 226.786 202.664 226.957 191.623Z" fill="white" stroke="#263238" stroke-miterlimit="10"/>
<path d="M171.185 195.189C171.185 195.189 165.158 205.796 171.988 216.6L185.714 214.995C185.714 214.995 182.174 202.519 184.201 194.505L171.185 195.189Z" fill="white" stroke="#263238" stroke-miterlimit="10"/>
<path d="M171.185 195.189L184.201 194.505C184.217 199.971 184.92 205.413 186.293 210.705L173.199 212.481C173.199 212.481 169.83 208.375 171.185 195.189Z" fill="#FD746C" stroke="#263238" stroke-miterlimit="10"/>
<path d="M179.66 197.531C179.663 197.707 179.613 197.879 179.517 198.026C179.421 198.173 179.284 198.288 179.122 198.357C178.961 198.425 178.782 198.444 178.61 198.41C178.438 198.376 178.279 198.292 178.155 198.168C178.031 198.044 177.947 197.886 177.913 197.713C177.88 197.541 177.898 197.363 177.967 197.201C178.035 197.039 178.15 196.902 178.297 196.806C178.444 196.71 178.616 196.66 178.792 196.663C179.022 196.663 179.243 196.754 179.406 196.917C179.569 197.08 179.66 197.301 179.66 197.531Z" fill="#263238"/>
<path d="M237.538 193.689C237.538 193.923 237.445 194.147 237.28 194.312C237.114 194.478 236.89 194.57 236.656 194.57C236.541 194.57 236.427 194.548 236.321 194.503C236.215 194.459 236.118 194.393 236.037 194.311C235.957 194.229 235.893 194.132 235.85 194.025C235.807 193.918 235.786 193.804 235.788 193.689C235.786 193.574 235.807 193.46 235.85 193.354C235.893 193.248 235.957 193.152 236.038 193.071C236.119 192.99 236.216 192.926 236.322 192.883C236.428 192.84 236.542 192.818 236.656 192.82C236.771 192.818 236.886 192.84 236.993 192.882C237.1 192.925 237.197 192.989 237.279 193.07C237.361 193.151 237.426 193.247 237.471 193.353C237.515 193.46 237.538 193.574 237.538 193.689Z" fill="#263238"/>
<path d="M215.284 215.719C215.3 215.842 215.288 215.968 215.251 216.087C215.214 216.207 215.152 216.317 215.07 216.41C214.987 216.504 214.885 216.579 214.771 216.63C214.658 216.681 214.534 216.708 214.409 216.708C214.284 216.708 214.161 216.681 214.047 216.63C213.933 216.579 213.832 216.504 213.749 216.41C213.666 216.317 213.604 216.207 213.567 216.087C213.53 215.968 213.519 215.842 213.534 215.719C213.56 215.505 213.664 215.308 213.825 215.166C213.986 215.023 214.194 214.944 214.409 214.944C214.625 214.944 214.832 215.023 214.994 215.166C215.155 215.308 215.258 215.505 215.284 215.719Z" fill="#263238"/>
<path d="M281.163 200.545L294.652 199.479C295.239 204.158 296.374 208.752 298.035 213.166L284.374 214.89C282.715 210.259 281.636 205.441 281.163 200.545Z" fill="#FD746C" stroke="#263238" stroke-miterlimit="10"/>
<path d="M284.611 232.248L298.087 231.182C298.681 235.859 299.816 240.452 301.469 244.868L287.822 246.579C286.155 241.955 285.076 237.14 284.611 232.248Z" fill="white" stroke="#263238" stroke-miterlimit="10"/>
<path d="M331.5 161.618L346.595 160.644C346.496 166.118 347.365 171.567 349.161 176.739L334.264 178.476C334.264 178.476 331.5 174.383 331.5 161.618Z" fill="white" stroke="#263238" stroke-miterlimit="10"/>
<path d="M333.738 159.236L348.832 158.275C348.731 163.73 349.591 169.16 351.372 174.317L336.422 176.054C336.422 176.054 333.738 171.962 333.738 159.236Z" fill="#FD746C" stroke="#263238" stroke-miterlimit="10"/>
<path d="M345.647 162.644C345.647 162.878 345.554 163.103 345.389 163.268C345.224 163.433 345 163.526 344.766 163.526C344.532 163.526 344.308 163.433 344.142 163.268C343.977 163.103 343.884 162.878 343.884 162.644C343.884 162.411 343.977 162.186 344.142 162.021C344.308 161.856 344.532 161.763 344.766 161.763C345 161.763 345.224 161.856 345.389 162.021C345.554 162.186 345.647 162.411 345.647 162.644Z" fill="#263238"/>
<path d="M288.651 202.874C288.653 202.989 288.632 203.103 288.589 203.209C288.546 203.315 288.482 203.412 288.401 203.493C288.32 203.574 288.224 203.637 288.117 203.68C288.011 203.723 287.897 203.745 287.783 203.743C287.668 203.745 287.553 203.724 287.446 203.681C287.34 203.638 287.242 203.574 287.16 203.493C287.078 203.412 287.013 203.316 286.968 203.21C286.924 203.104 286.901 202.99 286.901 202.874C286.901 202.641 286.994 202.416 287.159 202.251C287.325 202.086 287.549 201.993 287.783 201.993C287.898 201.993 288.012 202.016 288.118 202.06C288.225 202.104 288.321 202.17 288.402 202.252C288.483 202.334 288.546 202.431 288.589 202.538C288.632 202.645 288.653 202.759 288.651 202.874Z" fill="#263238"/>
<path d="M311.221 197.702L324.144 196.386C324.262 202.222 325.12 208.019 326.697 213.639L313.458 214.824C313.458 214.824 311.05 208.691 311.221 197.702Z" fill="white" stroke="#263238" stroke-miterlimit="10"/>
<path d="M321.801 199.755C321.801 199.989 321.709 200.214 321.543 200.379C321.378 200.544 321.154 200.637 320.92 200.637C320.745 200.637 320.575 200.586 320.43 200.489C320.285 200.392 320.172 200.254 320.105 200.093C320.038 199.932 320.021 199.755 320.055 199.583C320.089 199.412 320.173 199.255 320.296 199.132C320.42 199.009 320.577 198.925 320.748 198.891C320.919 198.857 321.096 198.874 321.257 198.941C321.418 199.008 321.556 199.121 321.653 199.266C321.75 199.411 321.801 199.581 321.801 199.755Z" fill="#263238"/>
<path d="M293.915 234.577C293.931 234.701 293.919 234.827 293.882 234.946C293.845 235.065 293.783 235.175 293.701 235.269C293.618 235.362 293.516 235.437 293.402 235.488C293.289 235.54 293.165 235.566 293.04 235.566C292.915 235.566 292.792 235.54 292.678 235.488C292.564 235.437 292.463 235.362 292.38 235.269C292.297 235.175 292.235 235.065 292.198 234.946C292.161 234.827 292.15 234.701 292.165 234.577C292.191 234.363 292.295 234.167 292.456 234.024C292.617 233.881 292.825 233.803 293.04 233.803C293.256 233.803 293.463 233.881 293.625 234.024C293.786 234.167 293.889 234.363 293.915 234.577Z" fill="#263238"/>
<path d="M414.54 161.723L428.016 160.644C428.609 165.326 429.744 169.924 431.398 174.344L417.751 176.054C416.084 171.431 415.005 166.616 414.54 161.723Z" fill="#FD746C" stroke="#263238" stroke-miterlimit="10"/>
<path d="M438.017 213.547L451.506 212.481C452.093 217.16 453.228 221.754 454.889 226.168L441.228 227.878C439.568 223.253 438.489 218.439 438.017 213.547Z" fill="#FD746C" stroke="#263238" stroke-miterlimit="10"/>
<path d="M454.889 159.236L469.983 158.275C469.884 163.748 470.748 169.196 472.536 174.37L457.586 176.107C457.586 176.107 454.889 171.962 454.889 159.236Z" fill="#FD746C" stroke="#263238" stroke-miterlimit="10"/>
<path d="M466.785 162.644C466.785 162.76 466.762 162.874 466.718 162.98C466.673 163.086 466.608 163.182 466.526 163.263C466.444 163.344 466.347 163.408 466.24 163.451C466.133 163.494 466.019 163.515 465.903 163.513C465.789 163.515 465.675 163.493 465.569 163.45C465.463 163.407 465.366 163.344 465.285 163.263C465.204 163.182 465.14 163.085 465.097 162.979C465.054 162.873 465.033 162.759 465.035 162.644C465.033 162.529 465.054 162.415 465.097 162.308C465.14 162.201 465.204 162.104 465.285 162.022C465.365 161.94 465.462 161.875 465.568 161.83C465.674 161.786 465.788 161.763 465.903 161.763C466.137 161.763 466.362 161.856 466.527 162.021C466.692 162.186 466.785 162.411 466.785 162.644Z" fill="#263238"/>
<path d="M425.331 164.395C425.331 164.628 425.238 164.853 425.073 165.018C424.908 165.183 424.683 165.276 424.449 165.276C424.216 165.276 423.991 165.183 423.826 165.018C423.661 164.853 423.568 164.628 423.568 164.395C423.568 164.161 423.661 163.937 423.826 163.771C423.991 163.606 424.216 163.513 424.449 163.513C424.683 163.513 424.908 163.606 425.073 163.771C425.238 163.937 425.331 164.161 425.331 164.395Z" fill="#263238"/>
<path d="M405.696 195.189L418.712 194.505C418.728 199.971 419.431 205.413 420.804 210.705L407.71 212.481C407.71 212.481 404.341 208.375 405.696 195.189Z" fill="#FD746C" stroke="#263238" stroke-miterlimit="10"/>
<path d="M414.172 197.532C414.173 197.647 414.152 197.761 414.109 197.868C414.066 197.975 414.003 198.072 413.922 198.154C413.841 198.236 413.745 198.301 413.638 198.346C413.532 198.39 413.418 198.413 413.303 198.413C413.069 198.413 412.845 198.32 412.68 198.155C412.514 197.99 412.421 197.765 412.421 197.532C412.421 197.416 412.444 197.302 412.489 197.196C412.533 197.09 412.598 196.993 412.68 196.913C412.762 196.832 412.86 196.768 412.967 196.725C413.073 196.682 413.188 196.661 413.303 196.663C413.418 196.661 413.531 196.682 413.637 196.725C413.744 196.768 413.84 196.832 413.921 196.913C414.002 196.994 414.066 197.091 414.109 197.197C414.152 197.303 414.173 197.417 414.172 197.532Z" fill="#263238"/>
<path d="M449.796 215.719C449.798 215.894 449.748 216.066 449.653 216.213C449.557 216.36 449.419 216.475 449.257 216.544C449.096 216.612 448.917 216.631 448.745 216.597C448.573 216.563 448.415 216.479 448.291 216.355C448.166 216.231 448.082 216.073 448.049 215.9C448.015 215.728 448.034 215.55 448.102 215.388C448.17 215.226 448.285 215.089 448.432 214.993C448.579 214.897 448.752 214.847 448.927 214.85C449.157 214.85 449.378 214.941 449.541 215.104C449.704 215.267 449.796 215.488 449.796 215.719Z" fill="#263238"/>
<path opacity="0.2" d="M132.126 88.4746L142.957 98.7394V290.257L132.126 300.68V88.4746Z" fill="black"/>
<path opacity="0.2" d="M530.532 87.356V299.706L520.057 290.257V98.7394L530.532 87.356Z" fill="black"/>
<path d="M272.425 160.236L300.785 158.223" stroke="#263238" stroke-linecap="round" stroke-linejoin="round"/>
<path d="M272.425 165.395L300.785 163.381" stroke="#263238" stroke-linecap="round" stroke-linejoin="round"/>
<path d="M272.425 170.567L300.785 168.553" stroke="#263238" stroke-linecap="round" stroke-linejoin="round"/>
<path d="M342.16 211.731C343.476 206.994 347.792 203.585 352.385 201.822C361.834 198.189 371.362 202.006 374.757 211.757C377.231 218.864 376.666 228.155 370.099 232.813C367.279 234.692 364.078 235.921 360.726 236.413C357.374 236.904 353.954 236.646 350.714 235.656C345.845 234.05 341.726 229.3 342.252 224.194" stroke="#263238" stroke-linecap="round" stroke-linejoin="round"/>
<path d="M370.309 178.423C368.555 185.24 366.888 192.066 365.308 198.9" stroke="#263238" stroke-linecap="round" stroke-linejoin="round"/>
<path d="M360.716 191.452C361.63 194.288 362.922 196.988 364.558 199.479C367.297 198.431 369.633 196.542 371.23 194.084" stroke="#263238" stroke-linecap="round" stroke-linejoin="round"/>
<path d="M350.688 213.047L364.164 211.981C364.757 216.659 365.892 221.252 367.546 225.668L353.899 227.392C352.232 222.763 351.154 217.944 350.688 213.047Z" fill="#FD746C" stroke="#263238" stroke-miterlimit="10"/>
<path d="M358.176 215.376C358.176 215.492 358.153 215.606 358.108 215.712C358.064 215.818 357.999 215.914 357.917 215.995C357.835 216.076 357.737 216.14 357.63 216.183C357.524 216.225 357.409 216.247 357.294 216.245C357.179 216.247 357.066 216.225 356.96 216.182C356.853 216.139 356.757 216.075 356.676 215.994C356.595 215.913 356.531 215.817 356.488 215.711C356.445 215.605 356.424 215.491 356.425 215.376C356.424 215.261 356.445 215.147 356.488 215.04C356.531 214.933 356.594 214.836 356.675 214.754C356.756 214.672 356.852 214.606 356.959 214.562C357.065 214.518 357.179 214.495 357.294 214.495C357.528 214.495 357.752 214.588 357.917 214.753C358.083 214.918 358.176 215.142 358.176 215.376Z" fill="#263238"/>
<path d="M248.303 578.382C248.486 579.199 248.841 579.969 249.345 580.638C249.849 581.307 250.49 581.862 251.224 582.264C256.488 584.515 265.964 580.948 272.688 579.277C279.413 577.606 293.955 572.565 295.271 566.959C295.503 566.131 295.466 565.251 295.166 564.446C293.929 561.498 288.322 561.748 284.822 561.748C280.519 561.748 270.07 560.616 267.082 559.313C264.095 558.01 247.5 566.038 247.5 566.038C247.5 566.038 246.697 573.486 248.303 578.382Z" fill="#FD746C"/>
<path d="M210.81 563.116C211.065 563.932 211.514 564.673 212.119 565.276C212.725 565.879 213.468 566.326 214.284 566.577C219.127 568.078 221.746 565.09 224.352 561.919C226.957 558.747 229.76 557.971 233.88 555.01C237.999 552.049 238.314 546.285 236.34 544.89C236.268 544.832 236.188 544.784 236.104 544.745C233.88 543.626 225.47 546.614 225.47 546.614L212.6 544.495C212.6 544.495 211.665 549.233 210.731 553.707C210.139 556.55 209.784 560.326 210.81 563.116Z" fill="#FD746C"/>
<path d="M210.81 563.129C211.065 563.945 211.514 564.686 212.119 565.289C212.725 565.892 213.468 566.339 214.284 566.591C219.127 568.091 221.746 565.103 224.352 561.932C226.957 558.76 229.76 557.984 233.88 555.023C237.999 552.062 238.314 546.298 236.34 544.903C236.703 547.215 236.146 549.577 234.788 551.483C233.233 553.559 231.321 555.341 229.142 556.747C226.968 558.16 224.948 559.796 223.115 561.629C222.286 562.564 220.891 562.84 219.864 563.551C218.338 564.603 216.982 565.59 215.179 565.182C213.598 564.803 212.111 564.104 210.81 563.129Z" fill="#FDFEFF"/>
<path d="M248.303 578.382C248.486 579.2 248.841 579.969 249.345 580.638C249.849 581.307 250.49 581.862 251.224 582.264C256.488 584.515 265.582 582.988 272.688 579.277C279.4 577.606 293.955 572.565 295.271 566.959C295.503 566.131 295.466 565.251 295.166 564.446C294.429 566.051 292.415 568.394 287.349 571.026C277.308 576.434 263.529 579.711 258.673 580.501C255.436 581.08 250.935 579.501 248.303 578.382Z" fill="#FDFEFF"/>
<path d="M214.653 346.266C214.034 345.91 200.282 381.956 199.927 383.469C198.55 389.342 198.106 395.395 198.611 401.406C199.699 412.539 203.976 423.122 210.928 431.885C217.508 440.281 231.366 452.941 226.72 464.969C223.891 472.339 204.625 505.765 209.731 545.956C209.731 545.956 215.798 556.155 227.207 545.956L238.038 523.873L246.539 564.669C246.539 564.669 257.87 577.132 267.49 564.669C266.698 543.032 268.796 521.386 273.728 500.304C278.992 478.423 283.243 456.336 286.48 434.043C287.967 423.857 290.428 413.092 289.112 402.841C287.796 392.049 275.952 361.242 272.004 351.109C272.109 351.109 259.397 371.757 214.653 346.266Z" fill="#263238"/>
<path d="M234.524 490.105C233.682 496.606 234.893 503.673 235.998 510.082" stroke="#FDFEFF" stroke-linecap="round" stroke-linejoin="round"/>
<path d="M226.984 407.71L239.328 412.513C239.328 412.513 243.907 446.887 243.907 453.428C243.907 457.863 239.222 470.154 236.38 481.064" stroke="#FDFEFF" stroke-linecap="round" stroke-linejoin="round"/>
<path d="M248.303 563.617C248.303 563.617 246.316 572.657 248.303 578.382C250.29 584.107 254.659 583.646 259.726 583.646C264.792 583.646 284.335 575.54 289.559 573.302C294.784 571.065 296.89 566.104 295.166 564.406C293.442 562.708 292.428 562.222 284.822 561.708C277.215 561.195 269.359 561.182 267.148 559.3" stroke="#263238" stroke-miterlimit="10"/>
<path d="M248.303 578.382C252.32 580.42 256.917 581.011 261.318 580.053C268.293 578.356 292.56 571.039 295.166 564.446" stroke="#263238" stroke-miterlimit="10"/>
<path d="M212.192 547.667C212.192 547.667 209.691 556.036 210.165 559.313C210.639 562.59 210.034 566.222 215.679 566.907C221.325 567.591 224.299 561.643 225.602 560.603C226.905 559.563 234.511 555.957 236.538 551.812C237.404 550.199 237.621 548.316 237.143 546.548C236.419 544.377 234.84 544.469 232.866 544.798C230.362 545.256 227.891 545.88 225.47 546.667" stroke="#263238" stroke-miterlimit="10"/>
<path d="M210.481 563.498C212.942 564.38 215.64 565.275 218.127 564.472C221.035 563.537 222.746 560.603 225.154 558.734C226.036 558.063 227.01 557.523 227.958 556.931C230.218 555.608 232.209 553.872 233.827 551.812C235.38 549.706 236.393 547.969 236.275 545.364" stroke="#263238" stroke-miterlimit="10"/>
<path d="M338.278 269.122C338.278 269.122 339.515 263.687 343.542 262.542C347.569 261.397 349.03 264.042 350.925 262.687C352.82 261.331 354.649 256.107 356.189 254.896C357.728 253.685 360.031 251.488 361.453 251.632C362.874 251.777 359.834 255.672 359.834 255.672C359.834 255.672 362.874 255.501 362.571 256.725C362.295 257.645 361.911 258.528 361.426 259.357C362.968 258.666 364.359 257.678 365.519 256.449C367.309 254.475 369.678 251.909 372.665 253.672C372.665 253.672 374.455 254.554 373.612 255.712C372.77 256.87 370.257 264.74 367.032 266.661C363.808 268.582 359.018 268.727 356.268 269.082C353.517 269.438 342.857 276.702 342.857 276.702L338.357 271.438L338.278 269.122Z" fill="white"/>
<path d="M343.029 276.742C346.266 273.438 349.609 271.991 353.557 270.03C356.189 268.714 359.413 269.254 362.334 268.898C366.124 268.451 367.901 266.029 369.678 262.845C371.072 260.305 372.191 256.87 374.218 255.067C373.136 254.814 372.007 254.846 370.941 255.159C368.954 255.844 367.467 258.002 366.032 259.831C364.659 261.642 362.717 262.94 360.518 263.516C360.332 263.589 360.125 263.589 359.939 263.516C359.426 263.226 359.689 262.292 360.018 261.726L362.229 257.989C362.366 257.816 362.463 257.617 362.515 257.403C362.568 257.19 362.573 256.967 362.532 256.752C362.361 256.225 361.755 256.199 361.216 256.304C358.948 256.806 356.859 257.916 355.175 259.515C353.675 260.831 352.227 262.739 350.345 262.779C349.445 262.691 348.559 262.483 347.713 262.16C346.533 261.892 345.303 261.941 344.147 262.302C342.992 262.662 341.952 263.322 341.133 264.213C339.344 266.069 338.015 267.885 338.12 270.793" stroke="#263238" stroke-linecap="round" stroke-linejoin="round"/>
<path d="M373.06 254.672C373.06 253.948 372.454 253.501 371.888 253.356C371.294 253.159 370.665 253.088 370.041 253.15C369.418 253.211 368.814 253.402 368.269 253.711C367.478 254.283 366.773 254.965 366.177 255.738C364.568 257.561 362.773 259.21 360.821 260.66" stroke="#263238" stroke-linecap="round" stroke-linejoin="round"/>
<path d="M352.793 261.344C354.899 258.462 356.083 254.764 358.926 252.672C359.632 252.093 360.492 251.732 361.4 251.632C361.446 251.613 361.495 251.603 361.545 251.603C361.594 251.603 361.644 251.613 361.689 251.632C361.782 251.738 361.689 251.909 361.689 252.04C360.86 253.659 360.018 255.251 359.15 256.857L359.268 256.62" stroke="#263238" stroke-linecap="round" stroke-linejoin="round"/>
<path d="M343.476 278.229C342.607 279.768 314.879 329.197 310.089 332.04C305.299 334.882 304.97 333.79 301.654 332.145C298.337 330.5 275.899 306.97 275.899 306.97L273.728 316.932L268.635 339.896L283.545 378.31C268.859 388.72 243.973 390.641 243.973 390.641L238.433 368.783L228.194 388.641C221.85 387.52 215.719 385.42 210.02 382.416C205.612 380.21 201.368 377.69 197.321 374.876L211.613 340.66C207.388 343.412 202.442 344.85 197.4 344.792C191.834 344.651 186.444 342.814 181.95 339.528C182.137 328.933 183.18 318.371 185.069 307.944C187.701 292.56 191.149 279.308 192.241 276.886C194.071 272.833 204.809 260.673 204.809 260.673C209.928 257.62 221.049 255.896 221.049 255.896L219.114 245.368C221.566 244.283 224.164 243.564 226.826 243.236C229.29 242.927 231.784 242.927 234.248 243.236C234.682 243.236 235.117 243.341 235.564 243.42C241.652 244.465 247.448 246.793 252.567 250.25V257.844C262.45 259.66 277.637 268.622 281.282 271.596C284.927 274.57 303.47 302.68 303.47 302.68L336.514 269.161L343.476 278.229Z" fill="#FD746C"/>
<path opacity="0.2" d="M344.292 279.137C343.423 280.677 315.695 330.092 310.918 332.935C306.141 335.777 305.786 334.685 302.483 333.04C299.179 331.395 276.728 307.944 276.728 307.944L283.716 277.676C283.716 277.676 302.496 306.51 306.536 317.788L344.292 279.137Z" fill="black"/>
<path opacity="0.2" d="M235.564 243.276V256.238C235.564 256.238 218.588 266.332 215.732 272.228C212.876 278.123 216.35 322.473 231.708 338.554L225.128 337.936L209.968 382.416C205.56 380.21 201.316 377.69 197.268 374.876L211.56 340.66C207.35 343.402 202.424 344.839 197.4 344.792C198.216 341.647 205.178 312.747 185.082 307.944C187.714 292.56 191.162 279.308 192.254 276.886C194.084 272.833 204.822 260.673 204.822 260.673C209.941 257.62 221.062 255.896 221.062 255.896L219.127 245.368C221.579 244.283 224.178 243.564 226.839 243.236L235.564 243.276Z" fill="black"/>
<path d="M252.356 193.86C252.356 193.86 258.515 196.492 259.502 201.466C260.489 206.441 261.239 211.665 264.003 213.731C266.766 215.798 268.188 216.561 267.201 218.298C266.786 219.09 266.302 219.843 265.753 220.548C265.753 220.548 268.293 237.656 265.332 239.749C262.371 241.841 254.488 237.393 254.488 237.393C253.11 238.03 251.917 239.009 251.024 240.237C250.13 241.464 249.565 242.9 249.382 244.407C248.711 249.671 249.29 248 249.29 248C249.29 248 237.275 242.144 225.036 244.171L225.483 228.839C225.483 228.839 233.853 189.333 252.356 193.86Z" fill="white"/>
<path d="M258.12 212.613C258.278 213.797 257.975 214.824 257.449 214.89C256.923 214.955 256.357 214.06 256.199 212.863C256.041 211.665 256.344 210.665 256.87 210.586C257.396 210.507 257.936 211.428 258.12 212.613Z" fill="#263238"/>
<path d="M246.961 189.635C246.961 189.635 259.186 196.544 260.042 203.453C260.897 210.362 262.121 212.797 265.753 214.955C269.385 217.114 265.753 220.548 265.753 220.548C265.753 220.548 267.411 237.854 265.332 239.749C263.253 241.644 252.172 238.367 246.908 230.537" stroke="#263238" stroke-linecap="round" stroke-linejoin="round"/>
<path opacity="0.6" d="M245.039 245.842L245.329 256.515C245.329 256.515 265.964 271.412 272.228 277.268L269.859 333.198L283.44 274.438C283.44 274.438 271.293 260.568 252.567 257.936V250.343C250.225 248.578 247.702 247.069 245.039 245.842Z" fill="white"/>
<path d="M253.672 236.88C251.919 238.262 250.61 240.129 249.908 242.249C249.419 243.891 249.11 245.581 248.987 247.289" stroke="#263238" stroke-linecap="round" stroke-linejoin="round"/>
<path d="M245.855 218.825C245.855 218.825 241.025 213.732 238.538 214.956C236.051 216.179 234.722 220.917 236.775 226.892C238.828 232.866 244.026 233.59 246.961 230.958" stroke="#263238" stroke-linecap="round" stroke-linejoin="round"/>
<path d="M225.536 235.472C225.457 238.354 225.326 240.881 225.089 243.539" stroke="#263238" stroke-linecap="round" stroke-linejoin="round"/>
<path d="M245.855 218.824C245.855 218.824 257.699 210.086 256.712 197.031C256.712 197.031 250.224 185.99 234.669 185.99C219.114 185.99 212.297 191.438 209.941 202.756C207.586 214.074 206.388 229.813 215.89 235.472C225.391 241.131 235.103 236.788 237.512 228.76C237.512 228.76 232.893 219.548 237.42 215.837C240.828 213.047 245.855 218.824 245.855 218.824Z" fill="#263238"/>
<path d="M220.825 255.093L218.548 245.408C218.548 245.408 237.841 238.367 252.54 250.29V257.436" stroke="#263238" stroke-linecap="round" stroke-linejoin="round"/>
<path d="M268.622 338.567L283.545 378.31C283.545 378.31 263.805 390.154 243.96 390.641L238.433 368.783L228.181 388.628C218.561 386.206 206.967 384.443 197.308 374.876L212.692 340.002L190.991 278.492L204.809 260.673C204.809 260.673 217.43 252.343 245.329 256.515C273.228 260.686 283.493 273.978 283.493 273.978L268.622 338.567Z" stroke="#263238" stroke-linecap="round" stroke-linejoin="round"/>
<path d="M268.622 338.567C268.622 338.567 262.437 341.568 252.33 338.567" stroke="#263238" stroke-linecap="round" stroke-linejoin="round"/>
<path d="M251.632 343.476C257.016 344.074 262.432 342.668 266.845 339.528" stroke="#263238" stroke-linecap="round" stroke-linejoin="round"/>
<g opacity="0.3">
<path opacity="0.3" d="M214.271 198.808C216.429 196.426 219.654 195.347 222.786 194.584C226.78 193.453 230.969 193.179 235.077 193.781C237.126 194.097 239.081 194.859 240.804 196.011C242.528 197.164 243.978 198.68 245.052 200.453" stroke="white" stroke-linecap="round" stroke-linejoin="round"/>
<path opacity="0.3" d="M213.705 203.032C214.745 207.455 217.056 211.478 220.353 214.604C223.65 217.73 227.789 219.824 232.261 220.627" stroke="white" stroke-linecap="round" stroke-linejoin="round"/>
</g>
<path d="M283.545 273.978L303.47 302.68C303.47 302.68 307.194 312.616 305.128 322.13" stroke="#263238" stroke-linecap="round" stroke-linejoin="round"/>
<path d="M303.47 302.68L336.501 269.161L343.515 278.268C343.515 278.268 326.21 315.116 310.102 332.106C309.557 332.67 308.906 333.121 308.186 333.432C307.466 333.743 306.691 333.908 305.906 333.918C305.122 333.928 304.343 333.782 303.616 333.489C302.888 333.196 302.225 332.762 301.667 332.211L275.913 307.036" stroke="#263238" stroke-linecap="round" stroke-linejoin="round"/>
<path d="M190.991 278.492C190.991 278.492 181.2 318.538 181.963 339.475C181.963 339.475 195.387 351.754 212.692 340.002" stroke="#263238" stroke-linecap="round" stroke-linejoin="round"/>
<path d="M206.02 321.104C205.274 325.58 203.65 329.865 201.243 333.711" stroke="#263238" stroke-linecap="round" stroke-linejoin="round"/>
<path d="M207.309 208.165C205.986 211.75 205.318 215.543 205.335 219.364C204.638 236.919 207.217 254.462 206.809 272.004C206.665 278.044 206.125 284.243 203.546 289.704C200.966 295.166 196.018 299.851 190.017 300.587C187.158 300.846 184.277 300.469 181.582 299.482C177.433 298.15 173.698 295.77 170.738 292.573C167.528 288.797 165.4 284.222 164.579 279.334C163.395 273.116 163.789 266.7 165.724 260.673C169.474 249 178.568 239.933 184.635 229.273C187.616 224.009 189.857 218.358 191.294 212.481C192.439 207.757 193.32 202.467 197.124 199.427C199.723 197.554 202.93 196.723 206.112 197.097C208.283 197.268 213.745 197.479 213.166 200.69C212.745 202.993 208.402 205.599 207.309 208.165Z" fill="#263238"/>
<g opacity="0.3">
<path opacity="0.3" d="M210.152 202.006C206.376 202.752 203.015 204.883 200.729 207.98C198.929 210.66 197.652 213.656 196.966 216.811C191.465 237.867 194.873 260.239 191.149 281.584C190.017 288.059 187.991 294.836 182.963 299.061" stroke="white" stroke-linecap="round" stroke-linejoin="round"/>
<path opacity="0.3" d="M182.99 250.527C183.872 249.211 184.793 247.895 185.714 246.579C186.28 245.789 186.872 244.973 187.425 244.144" stroke="white" stroke-linecap="round" stroke-linejoin="round"/>
<path opacity="0.3" d="M175.028 293.573C171.396 285.967 171.488 276.952 173.87 268.872C175.024 265.031 176.586 261.326 178.529 257.817" stroke="white" stroke-linecap="round" stroke-linejoin="round"/>
</g>
<path d="M438.978 292.31C439.876 288.609 439.609 284.721 438.215 281.177C436.491 277.521 434.576 273.958 432.477 270.504C432.477 270.504 432.964 262.213 430.845 259.371C428.726 256.528 422.133 246.211 420.58 246.145C419.028 246.079 419.264 253.185 421.896 257.91L421.462 261.121C421.462 261.121 411.474 255.975 408.473 254.778C405.473 253.58 397.945 250.224 396.327 251.725C394.708 253.225 406.407 257.291 408.473 260.594C408.473 260.594 389.891 258.647 390.233 261.121C390.576 263.595 396.879 263.977 396.879 263.977C396.879 263.977 394.932 264.332 395.471 265.872C396.011 267.411 409.631 270.504 409.631 270.504C413.251 276.028 418.459 280.326 424.568 282.835C434.991 287.204 438.978 292.31 438.978 292.31Z" fill="white"/>
<path d="M440.373 291.191C440.176 280.808 432.477 270.504 432.477 270.504C432.477 270.504 433.122 261.292 429.608 257.528C428.999 256.878 428.423 256.197 427.884 255.488C427.345 254.804 426.805 254.067 426.266 253.317C423.778 249.882 421.488 246.276 420.58 246.145C419.409 245.974 419.765 252.461 420.975 255.462C421.104 255.797 421.272 256.115 421.475 256.409C421.778 256.851 421.939 257.374 421.936 257.91C422.028 260.186 420.304 263.358 422.081 266.279" stroke="#263238" stroke-linecap="round" stroke-linejoin="round"/>
<path d="M421.502 261.121C421.502 261.121 399.34 248.764 395.511 252.383C395.511 252.383 407.355 258.055 408.513 260.594" stroke="#263238" stroke-linecap="round" stroke-linejoin="round"/>
<path d="M412.619 266.477C412.619 266.477 399.13 262.253 395.511 264.464C391.892 266.674 409.671 270.504 409.671 270.504C409.671 270.504 416.053 280.058 420.58 279.519" stroke="#263238" stroke-linecap="round" stroke-linejoin="round"/>
<path d="M395.511 264.516C395.511 264.516 390.076 263.661 390.247 261.174C390.418 258.686 407.355 258.542 414 262.845" stroke="#263238" stroke-linecap="round" stroke-linejoin="round"/>
<path d="M421.475 256.409C421.778 256.851 421.939 257.374 421.936 257.91L407.341 263.871C407.019 264.004 406.656 264.003 406.334 263.868C406.012 263.734 405.757 263.477 405.624 263.154C405.491 262.831 405.493 262.469 405.627 262.147C405.762 261.825 406.018 261.569 406.341 261.437L420.975 255.462C421.104 255.796 421.272 256.115 421.475 256.409Z" fill="#263238"/>
<path d="M435.82 252.251L427.924 255.488C427.384 254.804 426.845 254.067 426.305 253.317L434.872 249.816C435.19 249.71 435.536 249.728 435.841 249.868C436.145 250.008 436.385 250.259 436.511 250.569C436.636 250.88 436.639 251.227 436.518 251.539C436.397 251.852 436.161 252.106 435.859 252.251H435.82Z" fill="#263238"/>
<path d="M434.609 277.847L394.668 282.598L382.074 293.534L412.263 351.806L455.994 348.845L459.087 334.422L434.609 277.847Z" fill="white"/>
<path d="M434.609 277.847L429.608 287.836L455.994 348.845L459.087 334.422L434.609 277.847Z" fill="#263238"/>
<path opacity="0.9" d="M434.609 277.847L429.608 287.836L455.994 348.845L459.087 334.422L434.609 277.847Z" fill="white"/>
<path d="M382.074 293.534L429.608 287.835L455.994 348.845L412.263 351.806L382.074 293.534Z" fill="#263238"/>
<path opacity="0.6" d="M382.074 293.534L429.608 287.835L455.994 348.845L412.263 351.806L382.074 293.534Z" fill="white"/>
<path d="M429.608 287.835L382.074 293.534L412.263 351.806L455.994 348.845L429.608 287.835Z" stroke="#263238" stroke-linecap="round" stroke-linejoin="round"/>
<path d="M429.608 287.836L434.609 277.847" stroke="#263238" stroke-linecap="round" stroke-linejoin="round"/>
<path d="M455.994 348.845L459.087 334.422L434.609 277.847L394.668 282.598L382.074 293.534" stroke="#263238" stroke-linecap="round" stroke-linejoin="round"/>
<path d="M412.724 328.039C412.724 328.039 411 319.499 406.276 317.511C401.551 315.524 387.075 316.998 386.536 319.933C385.996 322.868 391.497 326.092 391.497 326.092C391.497 326.092 390.694 335.791 395.971 339.37C401.248 342.95 410.447 341.305 410.447 341.305L415.237 342.529L417.869 328.671L412.724 328.039Z" fill="white"/>
<path d="M414.54 327.684L412.671 328.026C412.671 328.026 410.724 317.946 405.42 317.064C400.117 316.182 385.956 317.419 386.496 320.946C387.036 324.473 391.444 326.079 391.444 326.079C391.444 326.079 391.26 337.751 396.932 339.87C402.604 341.989 410.368 341.291 410.368 341.291C409.487 340.897 411.092 341.489 412.934 341.949" stroke="#263238" stroke-linecap="round" stroke-linejoin="round"/>
<path d="M531.782 546.719L532.48 563.051C532.48 563.051 520.925 570.118 515.556 568.315C510.187 566.512 492.842 557.339 492.842 557.339C492.842 557.339 492.052 547.956 502.633 548.127C513.214 548.298 527.795 553.983 527.795 553.983L531.782 546.719Z" fill="#FD746C"/>
<path opacity="0.2" d="M531.782 546.719L532.48 563.051C532.48 563.051 520.925 570.118 515.556 568.315C510.187 566.512 492.842 557.339 492.842 557.339C492.842 557.339 492.052 547.956 502.633 548.127C513.214 548.298 527.795 553.983 527.795 553.983L531.782 546.719Z" fill="black"/>
<path d="M497.724 550.417C501.225 552.368 504.867 554.053 508.621 555.457C510.539 556.185 512.584 556.521 514.635 556.444L516.28 555.299L518.57 554.155L519.359 551.628L512.661 550.206C512.661 550.206 502.62 548.404 497.724 550.417Z" fill="white"/>
<path d="M493.829 553.523L492.842 557.339C492.842 557.339 506.134 566.762 513.714 567.867C521.294 568.973 532.48 563.064 532.48 563.064L532.375 560.603C532.375 560.603 525.558 564.485 519.215 564.761C512.872 565.038 493.829 553.523 493.829 553.523Z" fill="white"/>
<path d="M519.57 551.075C519.57 551.075 503.475 548.904 498.067 550.312C492.658 551.72 492.803 557.339 492.803 557.339C492.803 557.339 511.227 569.841 518.767 568.446C523.604 567.456 528.231 565.63 532.44 563.051V545.758" stroke="#263238" stroke-linecap="round" stroke-linejoin="round"/>
<path d="M493.829 553.523C493.829 553.523 512.858 564.985 519.254 564.748C525.65 564.511 532.48 559.655 532.48 559.655" stroke="#263238" stroke-linecap="round" stroke-linejoin="round"/>
<path d="M497.303 550.983C503.107 551.917 506.278 556.471 512.135 556.734C513.713 556.785 515.275 556.402 516.651 555.627C518.027 554.852 519.164 553.715 519.938 552.338" stroke="#263238" stroke-linecap="round" stroke-linejoin="round"/>
<path d="M465.048 554.905L464.548 578.132C464.548 578.132 451.73 581.317 444.624 578.645C437.517 575.974 422.897 557.155 422.897 557.155C422.897 557.155 427.266 548.64 436.583 552.207C445.9 555.773 458.587 561.932 458.587 561.932L465.048 554.905Z" fill="#FD746C"/>
<path opacity="0.2" d="M465.048 554.905L464.548 578.132C464.548 578.132 451.73 581.317 444.624 578.645C437.517 575.974 422.897 557.155 422.897 557.155C422.897 557.155 427.266 548.64 436.583 552.207C445.9 555.773 458.587 561.932 458.587 561.932L465.048 554.905Z" fill="black"/>
<path d="M422.91 557.155L424.463 554.155C424.463 554.155 433.332 563.564 435.359 565.525C437.386 567.486 443.255 573.184 448.309 574.947C453.362 576.711 463.89 574.855 463.89 574.855L464.561 578.132C464.561 578.132 448.993 580.606 445.361 578.922C441.729 577.237 426.937 563.801 422.91 557.155Z" fill="white"/>
<path d="M430.608 551.075C430.608 551.075 436.53 555.931 438.504 557.655C440.478 559.379 443.86 562.05 447.137 561.971C449.556 561.713 451.88 560.883 453.915 559.55L445.861 555.944C445.861 555.944 434.635 549.943 430.608 551.075Z" fill="white"/>
<path d="M447.585 557.155C447.585 557.155 437.517 551.325 431.056 551.088C424.594 550.851 422.91 557.155 422.91 557.155C422.91 557.155 438.702 578.606 447.585 579.527C453.284 580.046 459.03 579.561 464.561 578.093L465.048 558.945" stroke="#263238" stroke-linecap="round" stroke-linejoin="round"/>
<path d="M424.621 553.957C424.621 553.957 440.768 572.947 447.414 574.737C454.059 576.526 464.653 574.737 464.653 574.737" stroke="#263238" stroke-linecap="round" stroke-linejoin="round"/>
<path d="M429.016 551.286C431.771 551.912 434.275 553.351 436.201 555.418C438.107 557.475 440.265 559.283 442.623 560.8C445.084 562.116 448.309 562.551 450.612 560.958" stroke="#263238" stroke-linecap="round" stroke-linejoin="round"/>
<path d="M462.877 197.597C462.877 197.597 453.665 205.757 452.809 211.31C451.954 216.864 454.915 223.365 454.665 225.786C454.415 228.208 449.69 233.064 450.506 234.538C451.582 236.048 452.818 237.437 454.191 238.683C454.191 238.683 453.625 250.606 460.771 254.883L464.087 255.659L479.024 247.526L481.366 250.158L502.844 246.21C501.241 242.919 500.319 239.338 500.133 235.682C499.83 229.589 502.844 217.851 502.844 217.851L496.803 205.296L462.877 197.597Z" fill="white"/>
<path d="M516.346 351.806L524.084 382.64C524.084 382.64 518.07 385.746 509.884 389.654C495.211 396.669 473.549 406.289 466.93 405.446C456.626 404.025 432.477 378.929 432.477 378.929L447.19 346.924C447.19 346.924 416.382 347.871 410.447 345.884C410.447 345.884 408.815 334.04 413.013 323.907L450.362 325.763L450.73 322.591C450.73 322.591 458.455 295.258 463.14 284.651C467.825 274.044 473.089 264.516 473.089 264.516L482.511 257.581L479.879 250.474C479.879 250.474 490.868 242.42 502.672 242.684C506.63 242.719 510.5 243.859 513.845 245.974L511.648 253.448C511.648 253.448 531.875 277.136 534.967 285.138C538.06 293.139 523.452 335.172 516.346 351.806Z" fill="#FD746C"/>
<path opacity="0.2" d="M444.242 353.267L471.339 357.952C471.339 357.952 488.697 342.963 494.79 305.312C494.79 305.312 481.84 337.37 471.483 345.726L447.19 346.766L444.242 353.267Z" fill="black"/>
<path opacity="0.2" d="M516.346 351.806L524.084 382.64C524.084 382.64 517.925 385.022 509.739 388.931C507.998 379.994 505.74 371.167 502.975 362.492C502.678 361.32 502.165 360.213 501.462 359.229C500.666 357.953 499.64 356.838 498.435 355.939C495.04 354.03 490.381 350.293 488.368 346.95C494.382 348.174 501.528 351.043 507.647 350.727C508.417 350.767 509.177 350.534 509.792 350.069C510.2 349.6 510.469 349.025 510.569 348.411C513.13 338.541 515.688 328.68 518.241 318.827C519.28 315.493 519.838 312.028 519.899 308.536C519.767 304.141 518.083 299.956 516.412 295.876C512.183 285.559 507.915 275.259 503.607 264.977C503.113 263.442 502.202 262.075 500.975 261.029C499.85 260.34 498.579 259.925 497.264 259.818C492.763 259.134 487.052 257.726 482.498 257.554C487.657 253.264 495.211 251.461 501.857 250.593C502.538 248.02 502.787 245.351 502.594 242.697C506.551 242.732 510.421 243.872 513.766 245.987L511.569 253.462C511.569 253.462 531.796 277.15 534.888 285.151C537.981 293.152 523.452 335.172 516.346 351.806Z" fill="black"/>
<path d="M462.061 220.509C462.232 221.72 461.916 222.759 461.376 222.825C460.837 222.891 460.258 221.983 460.06 220.772C459.863 219.561 460.218 218.522 460.758 218.456C461.297 218.39 461.916 219.298 462.061 220.509Z" fill="#263238"/>
<path d="M486.275 232.406L493.658 230.379C493.658 230.379 495.513 222.483 494.684 217.785C493.855 213.087 487.552 212.692 485.657 212.837C483.762 212.981 484.104 220.022 484.104 220.022" stroke="#263238" stroke-linecap="round" stroke-linejoin="round"/>
<path d="M459.837 199.769L452.809 211.31C452.259 212.207 452.071 213.28 452.283 214.311L454.665 225.839C454.782 226.418 454.774 227.016 454.643 227.592C454.511 228.168 454.258 228.71 453.902 229.181C452.586 230.892 450.638 233.616 450.506 234.59C450.375 235.564 451.691 236.498 452.809 237.222C453.291 237.534 453.701 237.944 454.014 238.424C454.327 238.905 454.535 239.446 454.625 240.012C455.257 243.763 455.533 247.566 458.179 251.711C461.64 257.146 465.982 255.449 465.982 255.449L479.142 247.553C480.182 246.882 483.262 235.919 483.262 235.919" stroke="#263238" stroke-linecap="round" stroke-linejoin="round"/>
<path d="M457.007 214.034C457.007 214.034 461.205 208.968 465.232 214.363" stroke="#263238" stroke-linecap="round" stroke-linejoin="round"/>
<path d="M459.284 239.749C459.284 239.749 470.036 232.748 471.641 229.221C471.641 229.221 472.523 239.499 468.285 241.328C464.048 243.157 459.284 239.749 459.284 239.749Z" fill="#263238"/>
<path d="M501.501 242.684C501.501 242.684 498.698 233.59 500.33 227.523" stroke="#263238" stroke-linecap="round" stroke-linejoin="round"/>
<path d="M437.057 383.443C437.057 383.443 436.609 423.383 439.926 473.602C443.242 523.821 447.98 560.3 447.98 560.3C447.98 560.3 458.876 569.302 467.404 560.3L482.09 430.016L515.253 551.299C515.253 551.299 521.833 557.102 527.492 554.26C530.97 552.453 533.805 549.618 535.612 546.14C535.612 546.14 520.596 415.027 520.596 384.272C520.596 384.272 473.076 406.42 466.917 405.473C460.758 404.525 437.057 383.443 437.057 383.443Z" fill="#263238"/>
<path d="M482.09 430.016V421.423L494 415.58" stroke="white" stroke-linecap="round" stroke-linejoin="round"/>
<path d="M494 348.845C494 348.845 500.883 353.78 514.372 354.767" stroke="#263238" stroke-linecap="round" stroke-linejoin="round"/>
<path d="M494 354.767C499.696 356.346 505.715 356.346 511.411 354.767" stroke="#263238" stroke-linecap="round" stroke-linejoin="round"/>
<path d="M483.985 217.43C483.077 216.719 484.959 224.615 479.8 224.983C479.265 225.108 478.708 225.108 478.172 224.985C477.636 224.862 477.135 224.618 476.708 224.273C475.995 223.371 475.487 222.325 475.221 221.207C474.326 218.311 473.418 215.416 472.523 212.521C471.931 210.652 471.207 208.573 469.641 207.507C468.452 206.86 467.175 206.39 465.851 206.112C462.89 205.178 460.087 202.796 459.876 199.703C459.876 199.703 448.269 200.73 446.493 196.242C443.782 189.399 448.124 186.398 454.073 186.451C460.021 186.504 465.496 189.32 471.904 187.148C478.313 184.977 492.105 179.581 495 186.201C495 186.201 500.001 183.99 502.988 192.294C505.976 200.598 512.845 217.298 506.594 222.444C500.343 227.589 501.804 230.748 498.843 230.34C495.882 229.932 495 225.457 495 225.457C495 225.457 496.579 214.929 489.894 213.271C483.209 211.613 483.985 217.43 483.985 217.43Z" fill="#263238"/>
<path d="M491.21 180.055C492.479 180.672 493.482 181.728 494.034 183.027C494.586 184.326 494.648 185.78 494.211 187.122" stroke="#263238" stroke-linecap="round" stroke-linejoin="round"/>
<path opacity="0.6" d="M482.511 257.265L480.353 250.33L487.407 246.553L489.197 254.001L482.511 257.265Z" fill="white"/>
<path d="M495 186.201C496.508 185.219 498.318 184.812 500.101 185.054C501.884 185.295 503.52 186.169 504.712 187.517" stroke="#263238" stroke-linecap="round" stroke-linejoin="round"/>
<path d="M482.288 256.936L479.814 250.356C479.814 250.356 490.342 243.776 501.001 242.697C505.62 242.21 509.358 244.408 513.806 245.868L511.608 253.343" stroke="#263238" stroke-linecap="round" stroke-linejoin="round"/>
<path d="M447.19 346.858L432.477 378.863C439.465 387.694 463.64 404.104 466.93 405.381C470.22 406.657 524.084 382.64 524.084 382.64L516.359 351.806C516.359 351.806 539.165 296.824 535.612 286.77C532.059 276.715 512.292 252.685 508.252 250.474C504.212 248.263 493.987 251.948 493.987 251.948C493.987 251.948 479.577 257.62 474.484 262.713C469.391 267.806 457.376 296.745 454.954 309.286" stroke="#263238" stroke-linecap="round" stroke-linejoin="round"/>
<path d="M450.361 325.697L413.013 323.841C407.526 337.001 410.46 345.818 410.46 345.818C421.449 348.45 471.483 345.818 471.483 345.818C483.038 334.08 496.803 300.719 496.803 300.719C497.549 293.424 496.043 286.076 492.487 279.663" stroke="#263238" stroke-linecap="round" stroke-linejoin="round"/>
<path opacity="0.6" d="M482.511 269.648L479.879 277.847C479.879 277.847 449.875 321.117 450.625 329.566C450.625 329.566 450.098 325.434 455.454 307.918C459.228 296.388 464.611 285.45 471.444 275.426L482.511 269.648Z" fill="white"/>
<path d="M453.244 336.278C450.948 332.562 449.979 328.178 450.493 323.841C451.414 316.682 461.771 290.086 471.483 275.426L484.077 268.846" stroke="#263238" stroke-linecap="round" stroke-linejoin="round"/>
<path d="M480.748 249.777L479.077 247.526" stroke="#263238" stroke-linecap="round" stroke-linejoin="round"/>
</svg>
