<?xml version="1.0" encoding="UTF-8" standalone="no"?>
<svg width="229px" height="24px" viewBox="0 0 229 24" version="1.1" xmlns="http://www.w3.org/2000/svg" xmlns:xlink="http://www.w3.org/1999/xlink" xmlns:sketch="http://www.bohemiancoding.com/sketch/ns">
    <!-- Generator: Sketch 3.4.2 (15855) - http://www.bohemiancoding.com/sketch -->
    <title>Remote Scrum</title>
    <desc>Created with Sketch.</desc>
    <defs></defs>
    <g id="Page-1" stroke="none" stroke-width="1" fill="none" fill-rule="evenodd" sketch:type="MSPage">
        <g id="logo" sketch:type="MSLayerGroup" transform="translate(-3.000000, -3.000000)" fill="#FFFFFF">
            <g id="Logo" sketch:type="MSShapeGroup">
                <path d="M3.328,26 L4.992,26 L4.992,16.72 L12.32,16.72 L19.456,26 L21.568,26 L14.176,16.432 C17.952,15.92 20.736,13.776 20.736,10.032 L20.736,9.968 C20.736,8.368 20.096,6.864 19.04,5.808 C17.696,4.464 15.488,3.6 12.736,3.6 L3.328,3.6 L3.328,26 Z M4.992,15.216 L4.992,5.136 L12.64,5.136 C16.704,5.136 19.072,7.024 19.072,10.032 L19.072,10.096 C19.072,13.328 16.288,15.216 12.544,15.216 L4.992,15.216 Z M32.672,26.384 C35.808,26.384 37.76,25.104 39.424,23.312 L38.336,22.352 C36.992,23.792 35.264,24.912 32.736,24.912 C29.536,24.912 26.624,22.544 26.336,18.48 L39.872,18.48 C39.904,18.224 39.904,18.128 39.904,17.84 C39.904,13.008 36.992,9.296 32.416,9.296 C28,9.296 24.672,13.072 24.672,17.808 L24.672,17.872 C24.672,22.96 28.384,26.384 32.672,26.384 L32.672,26.384 Z M26.336,17.072 C26.624,13.456 29.12,10.736 32.352,10.736 C36.096,10.736 37.984,13.776 38.208,17.072 L26.336,17.072 Z M44.48,26 L46.048,26 L46.048,16.592 C46.048,13.296 48.352,10.736 51.264,10.736 C54.176,10.736 56.032,12.816 56.032,16.208 L56.032,26 L57.6,26 L57.6,16.496 C57.6,12.848 60,10.736 62.752,10.736 C65.76,10.736 67.584,12.784 67.584,16.304 L67.584,26 L69.152,26 L69.152,16.112 C69.152,12.016 66.752,9.296 62.88,9.296 C59.808,9.296 58.048,10.992 56.992,12.816 C56.096,10.928 54.336,9.296 51.488,9.296 C48.576,9.296 47.104,10.896 46.048,12.592 L46.048,9.68 L44.48,9.68 L44.48,26 Z M82.144,26.384 C87.008,26.384 90.56,22.416 90.56,17.84 L90.56,17.776 C90.56,13.2 87.04,9.296 82.208,9.296 C77.344,9.296 73.792,13.264 73.792,17.84 L73.792,17.904 C73.792,22.48 77.312,26.384 82.144,26.384 L82.144,26.384 Z M82.208,24.912 C78.432,24.912 75.488,21.776 75.488,17.84 L75.488,17.776 C75.488,13.936 78.272,10.768 82.144,10.768 C85.92,10.768 88.864,13.904 88.864,17.84 L88.864,17.904 C88.864,21.744 86.08,24.912 82.208,24.912 L82.208,24.912 Z M100.832,26.288 C101.856,26.288 102.656,26.096 103.488,25.712 L103.488,24.24 C102.56,24.656 101.888,24.816 101.088,24.816 C99.2,24.816 97.824,23.984 97.824,21.648 L97.824,11.12 L103.552,11.12 L103.552,9.68 L97.824,9.68 L97.824,4.464 L96.256,4.464 L96.256,9.68 L93.888,9.68 L93.888,11.12 L96.256,11.12 L96.256,21.808 C96.256,24.912 98.304,26.288 100.832,26.288 L100.832,26.288 Z M114.592,26.384 C117.728,26.384 119.68,25.104 121.344,23.312 L120.256,22.352 C118.912,23.792 117.184,24.912 114.656,24.912 C111.456,24.912 108.544,22.544 108.256,18.48 L121.792,18.48 C121.824,18.224 121.824,18.128 121.824,17.84 C121.824,13.008 118.912,9.296 114.336,9.296 C109.92,9.296 106.592,13.072 106.592,17.808 L106.592,17.872 C106.592,22.96 110.304,26.384 114.592,26.384 L114.592,26.384 Z M108.256,17.072 C108.544,13.456 111.04,10.736 114.272,10.736 C118.016,10.736 119.904,13.776 120.128,17.072 L108.256,17.072 Z M143.936,26.32 C148.256,26.32 151.36,23.824 151.36,20.208 L151.36,20.144 C151.36,16.88 149.184,15.024 144,13.968 C138.688,12.88 137.472,11.44 137.472,9.072 L137.472,9.008 C137.472,6.672 139.648,4.784 142.944,4.784 C145.408,4.784 147.52,5.488 149.632,7.312 L150.688,6 C148.416,4.176 146.272,3.28 143.008,3.28 C138.848,3.28 135.808,5.84 135.808,9.168 L135.808,9.232 C135.808,12.624 137.984,14.448 143.36,15.536 C148.448,16.56 149.696,17.936 149.696,20.304 L149.696,20.368 C149.696,22.928 147.392,24.816 144.032,24.816 C140.736,24.816 138.464,23.76 136,21.488 L134.912,22.736 C137.6,25.136 140.352,26.32 143.936,26.32 L143.936,26.32 Z M163.68,26.384 C166.688,26.384 168.672,25.04 170.336,23.152 L169.248,22.192 C167.872,23.728 166.08,24.912 163.776,24.912 C160.032,24.912 157.056,21.776 157.056,17.84 L157.056,17.776 C157.056,13.872 159.936,10.768 163.648,10.768 C166.08,10.768 167.68,12.016 169.088,13.456 L170.208,12.304 C168.672,10.704 166.752,9.296 163.68,9.296 C159.008,9.296 155.36,13.264 155.36,17.84 L155.36,17.904 C155.36,22.48 158.976,26.384 163.68,26.384 L163.68,26.384 Z M174.752,26 L176.32,26 L176.32,19.312 C176.32,14 179.616,11.152 183.392,11.152 L183.552,11.152 L183.552,9.424 C180.32,9.296 177.6,11.408 176.32,14.32 L176.32,9.68 L174.752,9.68 L174.752,26 Z M193.76,26.384 C196.736,26.384 198.56,24.88 199.648,22.96 L199.648,26 L201.216,26 L201.216,9.68 L199.648,9.68 L199.648,19.12 C199.648,22.512 197.184,24.944 193.984,24.944 C190.688,24.944 188.8,22.736 188.8,19.376 L188.8,9.68 L187.232,9.68 L187.232,19.664 C187.232,23.568 189.632,26.384 193.76,26.384 L193.76,26.384 Z M207.168,26 L208.736,26 L208.736,16.592 C208.736,13.296 211.04,10.736 213.952,10.736 C216.864,10.736 218.72,12.816 218.72,16.208 L218.72,26 L220.288,26 L220.288,16.496 C220.288,12.848 222.688,10.736 225.44,10.736 C228.448,10.736 230.272,12.784 230.272,16.304 L230.272,26 L231.84,26 L231.84,16.112 C231.84,12.016 229.44,9.296 225.568,9.296 C222.496,9.296 220.736,10.992 219.68,12.816 C218.784,10.928 217.024,9.296 214.176,9.296 C211.264,9.296 209.792,10.896 208.736,12.592 L208.736,9.68 L207.168,9.68 L207.168,26 Z" id="Remote-Scrum"></path>
            </g>
        </g>
    </g>
</svg>